<?xml version="1.0" standalone="no"?>
<!DOCTYPE svg PUBLIC "-//W3C//DTD SVG 20010904//EN"
 "http://www.w3.org/TR/2001/REC-SVG-20010904/DTD/svg10.dtd">
<svg version="1.0" xmlns="http://www.w3.org/2000/svg"
 width="1280.000000pt" height="600.000000pt" viewBox="0 0 1280.000000 600.000000"
 preserveAspectRatio="xMidYMid meet">

<g transform="translate(0.000000,600.000000) scale(0.100000,-0.100000)"
fill="#000000" stroke="none">
<path d="M2235 3725 c-51 -18 -110 -81 -124 -131 -15 -54 -15 -865 0 -919 15
-52 82 -119 134 -134 57 -16 8293 -16 8350 0 52 15 119 82 134 134 15 55 15
865 0 920 -15 52 -82 119 -134 134 -29 8 -1177 11 -4180 11 -3543 -1 -4146 -3
-4180 -15z m8146 -196 c21 -7 53 -24 71 -39 l33 -28 3 -273 c2 -180 -1 -281
-8 -299 -14 -34 -82 -78 -134 -85 -22 -3 -1778 -4 -3901 -3 l-3860 3 -41 23
c-73 43 -74 46 -74 350 0 261 1 270 22 297 12 15 40 36 62 46 40 18 165 19
3915 19 2886 0 3883 -3 3912 -11z"/>
</g>
</svg>
