<?xml version="1.0" standalone="no"?>
<!DOCTYPE svg PUBLIC "-//W3C//DTD SVG 20010904//EN"
 "http://www.w3.org/TR/2001/REC-SVG-20010904/DTD/svg10.dtd">
<svg version="1.0" xmlns="http://www.w3.org/2000/svg"
 width="1536.000000pt" height="1536.000000pt" viewBox="0 0 1536.000000 1536.000000"
 preserveAspectRatio="xMidYMid meet">

<g transform="translate(0.000000,1536.000000) scale(0.100000,-0.100000)"
fill="#000000" stroke="none">
<path d="M7495 13155 c-5 -2 -120 -11 -255 -20 -135 -9 -267 -23 -293 -30 -27
-8 -83 -17 -125 -20 -89 -7 -238 -36 -368 -71 -49 -13 -101 -24 -115 -24 -13
0 -51 -9 -84 -20 -120 -39 -161 -52 -215 -64 -30 -7 -71 -20 -90 -28 -69 -30
-146 -58 -161 -58 -8 0 -30 -8 -49 -18 -19 -9 -69 -30 -110 -46 -41 -16 -111
-46 -155 -66 -44 -21 -91 -41 -105 -45 -14 -4 -36 -15 -50 -25 -14 -9 -54 -30
-90 -46 -36 -15 -76 -36 -89 -46 -13 -10 -28 -18 -33 -18 -5 0 -42 -19 -81
-42 -40 -23 -92 -53 -117 -66 -25 -13 -58 -34 -75 -46 -16 -12 -66 -44 -110
-71 -44 -27 -114 -74 -155 -104 -41 -31 -95 -69 -120 -86 -192 -127 -674 -573
-880 -814 -30 -36 -71 -83 -90 -105 -47 -54 -171 -211 -215 -272 -161 -225
-253 -371 -374 -587 -46 -82 -131 -252 -131 -260 0 -5 -8 -21 -18 -35 -10 -15
-31 -61 -47 -102 -16 -41 -37 -88 -47 -105 -10 -16 -18 -36 -18 -44 0 -8 -9
-32 -19 -55 -43 -92 -71 -164 -71 -181 0 -9 -7 -31 -14 -48 -25 -55 -57 -150
-71 -212 -7 -33 -20 -78 -28 -100 -27 -73 -55 -179 -61 -232 -4 -29 -13 -70
-21 -92 -7 -22 -18 -73 -24 -113 -6 -40 -15 -89 -21 -108 -6 -19 -15 -91 -21
-160 -5 -69 -16 -150 -24 -180 -8 -32 -18 -165 -25 -320 -13 -300 0 -742 26
-866 8 -39 19 -127 24 -196 5 -69 13 -136 18 -149 5 -13 15 -58 22 -99 6 -41
20 -104 31 -139 10 -35 19 -77 19 -94 0 -30 28 -132 57 -212 8 -22 21 -67 28
-100 14 -62 46 -157 71 -212 7 -17 14 -39 14 -49 0 -10 9 -36 19 -58 11 -23
27 -60 35 -83 41 -110 50 -133 80 -198 19 -38 39 -87 45 -107 7 -20 19 -42 27
-48 7 -7 14 -17 14 -22 0 -25 129 -266 265 -494 111 -185 282 -423 440 -612
375 -448 768 -801 1230 -1106 163 -108 225 -146 233 -146 5 0 22 -10 36 -21
15 -12 128 -72 250 -133 220 -110 269 -133 376 -176 30 -12 69 -29 85 -37 17
-9 50 -21 75 -29 25 -7 81 -27 125 -44 44 -17 98 -36 120 -41 40 -10 122 -35
225 -69 30 -10 75 -21 100 -25 25 -3 68 -12 95 -20 104 -31 261 -65 298 -65
20 0 77 -9 125 -19 48 -11 189 -29 313 -41 417 -40 1156 -16 1384 44 32 9 80
16 105 16 25 1 63 5 85 9 87 19 183 43 245 62 36 10 81 19 100 19 19 0 55 9
79 20 24 11 51 20 60 20 9 1 34 8 56 16 22 9 63 22 90 29 28 7 86 28 130 45
44 17 98 36 119 41 22 6 51 16 65 24 14 8 58 26 96 41 131 49 420 191 594 291
40 24 77 43 80 43 4 0 36 20 72 45 35 25 68 45 72 45 4 0 32 18 62 40 30 22
58 40 62 40 5 0 42 25 83 55 41 31 80 59 85 63 454 325 959 836 1268 1282 59
85 131 191 142 209 5 9 29 46 52 82 24 36 43 70 43 76 0 6 9 22 20 36 21 27
64 103 133 237 24 47 49 94 55 105 17 28 102 213 102 221 0 3 6 20 14 37 37
81 76 176 76 183 0 8 23 70 60 164 10 25 30 86 45 135 14 50 35 114 46 143 10
30 19 64 19 75 0 12 8 51 19 87 41 137 62 228 70 300 5 41 16 102 24 135 8 33
21 107 27 165 6 57 14 108 17 113 3 4 11 146 18 315 16 341 6 803 -20 967 -7
50 -16 119 -20 155 -4 36 -15 99 -26 142 -10 42 -19 91 -19 108 0 36 -39 209
-70 311 -11 36 -20 74 -20 85 0 19 -40 149 -65 209 -7 17 -18 57 -25 88 -6 31
-15 59 -20 62 -5 3 -16 27 -24 53 -45 143 -179 463 -232 552 -8 14 -24 45 -35
70 -29 64 -137 256 -214 380 -22 36 -45 72 -50 81 -10 17 -76 113 -144 212
-60 87 -264 348 -326 417 -304 337 -646 653 -909 840 -26 19 -61 44 -76 55
-183 134 -481 314 -685 412 -38 19 -77 39 -85 44 -8 5 -31 16 -50 25 -104 46
-128 57 -161 75 -20 10 -42 19 -49 19 -7 0 -31 9 -54 19 -90 42 -164 71 -179
71 -9 0 -36 9 -59 19 -70 31 -150 59 -188 66 -19 4 -57 15 -85 25 -87 31 -190
60 -218 60 -15 0 -53 9 -84 19 -32 11 -88 24 -126 31 -37 6 -79 15 -92 20 -14
5 -76 14 -138 20 -61 6 -134 17 -162 25 -97 27 -866 69 -920 50z m1495 -2599
c36 -9 79 -16 97 -16 17 0 43 -4 57 -10 l26 -10 -2 -447 -3 -448 -350 -6
c-343 -7 -351 -7 -424 -33 -123 -43 -207 -127 -236 -236 -33 -122 -34 -146
-35 -502 0 -311 2 -359 16 -372 14 -14 72 -16 493 -16 358 0 480 -3 489 -12
18 -18 14 -120 -8 -217 -11 -47 -27 -153 -36 -236 -8 -82 -22 -208 -30 -279
-14 -127 -37 -229 -56 -253 -8 -10 -106 -13 -429 -13 l-419 0 -10 -26 c-6 -16
-10 -497 -10 -1302 0 -702 -4 -1283 -8 -1290 -7 -10 -118 -12 -523 -10 l-514
3 -5 1300 c-3 715 -9 1306 -13 1313 -6 9 -103 12 -426 12 -311 0 -420 3 -429
12 -9 9 -12 132 -12 493 0 361 3 484 12 493 9 9 117 12 423 12 240 0 416 4
425 10 13 8 16 81 20 517 6 479 7 514 28 606 13 55 29 109 36 120 8 12 17 39
20 59 8 43 88 201 154 303 56 87 206 239 288 291 128 83 302 155 409 169 28 4
58 11 68 17 43 23 124 27 477 23 293 -3 389 -7 440 -19z"/>
</g>
</svg>
