<?xml version="1.0" standalone="no"?>
<!DOCTYPE svg PUBLIC "-//W3C//DTD SVG 20010904//EN"
 "http://www.w3.org/TR/2001/REC-SVG-20010904/DTD/svg10.dtd">
<svg version="1.0" xmlns="http://www.w3.org/2000/svg"
 width="1536.000000pt" height="1536.000000pt" viewBox="0 0 1536.000000 1536.000000"
 preserveAspectRatio="xMidYMid meet">

<g transform="translate(0.000000,1536.000000) scale(0.100000,-0.100000)"
fill="#000000" stroke="none">
<path d="M10756 9826 c-83 -35 -126 -73 -163 -144 -43 -83 -50 -137 -30 -242
25 -125 75 -219 294 -548 107 -162 198 -302 200 -312 12 -44 32 -43 -1130 -47
-606 -3 -3077 -8 -5492 -13 -2415 -4 -4400 -11 -4412 -15 l-23 -7 0 -808 0
-809 88 -3 c48 -2 1356 0 2907 3 1551 4 3998 7 5438 8 2366 1 2618 -1 2624
-15 9 -23 -1 -40 -203 -346 -201 -304 -255 -404 -279 -517 -29 -138 -12 -227
58 -313 60 -73 137 -110 242 -116 131 -7 251 30 530 163 77 37 176 84 220 105
188 88 277 131 390 185 66 31 156 74 200 95 44 21 134 64 200 95 66 32 156 74
200 95 119 56 259 122 454 216 95 46 175 84 176 84 2 0 65 30 141 66 77 36
357 170 623 296 288 136 522 254 577 289 119 78 206 169 253 268 33 72 35 82
36 181 0 94 -3 112 -29 170 -35 79 -121 187 -184 233 -46 33 -199 127 -206
127 -2 0 -64 29 -138 64 -73 35 -167 79 -208 99 -41 19 -118 55 -170 80 -230
109 -312 147 -315 147 -2 0 -54 24 -116 54 -63 29 -186 87 -274 129 -88 41
-212 100 -275 130 -210 99 -680 320 -835 392 -105 48 -199 92 -310 145 -580
275 -598 283 -707 321 -73 25 -114 32 -193 36 -90 3 -106 1 -159 -21z"/>
</g>
</svg>
