<?xml version="1.0" standalone="no"?>
<!DOCTYPE svg PUBLIC "-//W3C//DTD SVG 20010904//EN"
 "http://www.w3.org/TR/2001/REC-SVG-20010904/DTD/svg10.dtd">
<svg version="1.0" xmlns="http://www.w3.org/2000/svg"
 width="1536.000000pt" height="1536.000000pt" viewBox="0 0 1536.000000 1536.000000"
 preserveAspectRatio="xMidYMid meet">

<g transform="translate(0.000000,1536.000000) scale(0.100000,-0.100000)"
fill="#000000" stroke="none">
<path d="M4310 9761 c-80 -22 -173 -59 -305 -121 -55 -26 -138 -66 -185 -88
-47 -22 -134 -63 -195 -92 -60 -29 -150 -72 -200 -95 -188 -89 -264 -125 -390
-185 -71 -34 -375 -178 -675 -320 -533 -252 -640 -303 -905 -430 -71 -34 -164
-78 -205 -97 -459 -217 -561 -278 -652 -389 -32 -40 -71 -102 -89 -144 -27
-64 -31 -85 -31 -164 0 -77 5 -101 28 -156 51 -120 125 -203 259 -290 86 -55
182 -104 560 -280 44 -20 230 -108 413 -194 182 -86 482 -226 665 -312 182
-86 368 -174 412 -194 44 -21 197 -93 340 -160 143 -67 325 -153 405 -190 80
-37 193 -90 251 -118 367 -174 449 -207 568 -226 186 -30 331 35 396 177 36
76 40 137 17 242 -28 124 -75 209 -301 548 -105 158 -191 293 -191 301 0 7 7
19 15 26 18 15 1089 19 6845 29 2291 4 4173 11 4183 15 16 8 17 56 17 816 l0
808 -52 3 c-29 2 -1257 2 -2728 -1 -1471 -3 -3935 -6 -5475 -5 l-2800 0 -3 23
c-2 14 14 49 44 95 26 39 112 170 191 289 173 263 228 367 249 480 28 145 3
240 -86 328 -86 86 -234 113 -390 71z"/>
</g>
</svg>
