<?xml version="1.0" standalone="no"?>
<!DOCTYPE svg PUBLIC "-//W3C//DTD SVG 20010904//EN"
 "http://www.w3.org/TR/2001/REC-SVG-20010904/DTD/svg10.dtd">
<svg version="1.0" xmlns="http://www.w3.org/2000/svg"
 width="1536.000000pt" height="1536.000000pt" viewBox="0 0 1536.000000 1536.000000"
 preserveAspectRatio="xMidYMid meet">

<g transform="translate(0.000000,1536.000000) scale(0.100000,-0.100000)"
fill="#000000" stroke="none">
<path d="M7320 14133 c-327 -15 -822 -71 -1055 -119 -38 -8 -104 -21 -145 -29
-109 -21 -259 -55 -480 -110 -30 -7 -68 -18 -85 -23 -16 -6 -64 -20 -105 -33
-104 -30 -351 -109 -375 -120 -24 -10 -97 -36 -140 -49 -16 -6 -39 -14 -50
-19 -11 -6 -56 -24 -100 -41 -44 -17 -93 -37 -110 -45 -16 -7 -79 -35 -140
-60 -280 -120 -698 -343 -965 -513 -85 -55 -332 -220 -365 -245 -16 -12 -75
-55 -130 -96 -319 -237 -702 -587 -996 -911 -263 -291 -536 -660 -746 -1008
-80 -133 -268 -480 -279 -515 -3 -12 -10 -26 -14 -32 -9 -12 -140 -308 -170
-385 -60 -152 -101 -271 -158 -455 -36 -117 -49 -166 -98 -355 -35 -137 -80
-377 -113 -605 -47 -325 -71 -811 -52 -1075 31 -445 39 -519 87 -795 19 -107
73 -366 80 -376 2 -4 9 -31 14 -61 5 -29 17 -78 26 -108 74 -253 93 -315 116
-380 11 -30 26 -71 33 -90 41 -115 105 -274 160 -400 59 -133 236 -491 255
-515 4 -5 23 -37 41 -70 44 -80 220 -361 285 -455 433 -622 937 -1141 1569
-1617 88 -66 392 -273 468 -319 27 -16 59 -36 72 -44 44 -28 300 -175 350
-201 274 -141 485 -243 548 -265 22 -8 45 -18 51 -22 6 -4 38 -18 71 -31 33
-12 72 -29 87 -37 14 -8 32 -14 38 -14 7 0 31 -9 54 -19 42 -20 229 -89 301
-111 22 -7 44 -16 50 -21 5 -5 18 -9 28 -9 10 0 60 -14 111 -31 113 -38 405
-119 468 -130 26 -4 55 -12 65 -17 10 -5 41 -12 68 -16 28 -4 77 -13 110 -20
105 -25 208 -45 260 -51 28 -4 97 -15 155 -25 58 -10 134 -21 170 -25 36 -3
110 -12 165 -20 416 -58 1336 -58 1755 0 58 8 130 17 160 20 152 15 648 106
800 146 25 6 88 22 140 36 136 35 372 103 395 114 11 5 38 13 60 18 50 12 288
97 390 140 11 5 47 18 80 31 33 12 74 28 90 36 17 7 64 28 105 45 221 94 524
246 770 388 280 161 536 331 776 516 149 115 282 226 429 358 406 365 758 761
1034 1162 19 28 53 77 76 110 23 33 72 112 110 175 38 63 74 122 80 130 7 8
27 42 45 75 17 33 36 65 40 70 17 21 192 372 243 488 48 108 110 261 167 412
18 48 79 230 115 345 10 30 21 71 25 90 4 19 20 80 35 135 74 273 144 682 166
970 6 83 15 202 19 265 12 154 12 409 0 550 -5 63 -14 183 -19 265 -10 138
-36 333 -63 480 -6 33 -16 92 -23 130 -7 39 -20 104 -29 145 -15 73 -20 93
-66 270 -94 361 -251 779 -424 1130 -89 181 -131 258 -265 487 -64 110 -297
457 -348 518 -5 6 -22 28 -38 50 -387 520 -1012 1117 -1560 1490 -188 129
-404 269 -445 289 -8 4 -33 18 -55 31 -22 14 -50 29 -62 34 -12 6 -40 22 -62
35 -195 124 -880 434 -1118 507 -18 5 -45 16 -60 24 -15 8 -36 15 -46 15 -10
0 -30 6 -45 14 -24 12 -222 74 -357 112 -229 65 -676 165 -870 193 -355 53
-526 71 -885 91 -142 9 -596 10 -750 3z m1084 -762 c13 -11 61 -17 174 -22
114 -5 165 -11 187 -23 19 -10 55 -16 98 -16 42 0 89 -8 124 -20 32 -11 79
-20 105 -20 26 0 70 -9 98 -20 28 -11 72 -20 98 -20 26 0 67 -9 91 -20 24 -11
59 -20 78 -20 19 0 47 -7 62 -15 16 -8 46 -19 67 -24 61 -15 132 -40 219 -75
98 -40 137 -54 195 -71 25 -7 74 -27 109 -45 35 -17 77 -34 95 -37 17 -3 42
-11 56 -19 93 -47 132 -64 145 -64 20 0 271 -125 310 -155 17 -12 93 -54 171
-93 77 -39 156 -84 176 -99 19 -15 65 -44 103 -63 37 -19 91 -55 120 -80 48
-41 74 -59 180 -125 18 -11 57 -41 88 -67 30 -27 60 -48 67 -48 6 0 51 -37 98
-83 48 -46 112 -99 142 -119 72 -47 571 -550 598 -603 11 -22 39 -58 62 -80
24 -22 58 -65 78 -95 20 -30 55 -75 78 -100 23 -25 49 -60 59 -79 9 -19 25
-42 34 -53 10 -10 24 -31 32 -46 7 -15 28 -45 46 -68 18 -23 33 -45 33 -51 0
-5 15 -30 34 -54 19 -24 48 -73 66 -109 18 -36 43 -76 55 -90 25 -28 38 -52
190 -364 59 -120 122 -266 140 -323 19 -58 38 -110 43 -116 5 -7 14 -32 20
-57 6 -25 16 -61 22 -80 7 -19 20 -57 30 -85 55 -160 89 -277 95 -325 4 -30
15 -81 26 -113 10 -31 19 -77 19 -102 0 -25 7 -62 15 -81 9 -21 17 -87 21
-162 5 -87 12 -136 23 -157 14 -27 16 -91 16 -555 0 -425 -3 -532 -14 -560 -8
-19 -17 -94 -21 -165 -4 -74 -12 -141 -20 -154 -7 -14 -16 -57 -21 -97 -4 -41
-15 -95 -23 -121 -8 -26 -19 -75 -25 -108 -9 -59 -24 -113 -57 -210 -10 -27
-25 -72 -35 -100 -9 -27 -22 -66 -29 -85 -6 -19 -16 -53 -21 -75 -6 -22 -19
-58 -29 -81 -11 -22 -20 -46 -20 -53 0 -8 -16 -48 -35 -91 -19 -43 -35 -85
-35 -95 0 -23 -246 -513 -274 -545 -12 -14 -35 -52 -51 -85 -17 -33 -47 -82
-67 -109 -21 -27 -38 -53 -38 -58 0 -5 -12 -25 -27 -45 -16 -20 -37 -51 -48
-69 -44 -73 -114 -170 -135 -189 -13 -11 -42 -49 -65 -85 -24 -36 -62 -83 -85
-105 -23 -22 -51 -58 -62 -80 -27 -53 -550 -580 -603 -607 -22 -11 -81 -60
-132 -109 -51 -49 -99 -89 -107 -89 -8 0 -38 -22 -68 -49 -29 -26 -71 -57 -93
-69 -22 -11 -51 -32 -64 -46 -14 -14 -29 -26 -34 -26 -5 0 -32 -17 -60 -37
-28 -21 -63 -44 -77 -53 -38 -21 -118 -74 -165 -108 -22 -16 -103 -61 -180
-100 -235 -118 -289 -146 -325 -173 -45 -33 -116 -69 -137 -69 -17 0 -90 -32
-194 -86 -37 -19 -77 -34 -88 -34 -12 0 -39 -9 -61 -20 -22 -11 -47 -20 -57
-20 -10 -1 -36 -9 -58 -20 -22 -11 -48 -19 -57 -20 -10 0 -32 -6 -50 -14 -32
-14 -85 -32 -178 -61 -75 -23 -143 -46 -180 -60 -19 -7 -56 -16 -83 -19 -26
-3 -61 -12 -77 -21 -16 -8 -44 -15 -63 -15 -19 0 -54 -9 -78 -20 -27 -12 -66
-20 -100 -20 -35 0 -74 -8 -100 -20 -31 -14 -66 -20 -117 -20 -44 0 -87 -6
-110 -16 -25 -11 -84 -18 -187 -23 -103 -5 -158 -11 -175 -21 -21 -13 -119
-15 -640 -15 -563 0 -619 1 -658 18 -32 13 -71 17 -157 17 -90 0 -128 4 -172
20 -37 13 -83 20 -129 20 -50 0 -85 6 -115 20 -27 12 -66 20 -102 20 -38 0
-71 7 -97 20 -22 11 -56 20 -77 20 -22 0 -56 9 -78 20 -22 11 -58 20 -80 20
-22 0 -58 9 -80 20 -22 11 -51 20 -65 20 -14 0 -31 5 -37 11 -5 5 -32 16 -59
24 -54 15 -95 28 -169 56 -28 11 -58 19 -68 19 -9 0 -34 9 -54 20 -21 11 -47
20 -59 20 -12 0 -57 18 -100 40 -43 22 -88 40 -100 40 -11 0 -51 15 -90 34
-38 19 -82 38 -99 42 -39 9 -122 50 -160 80 -17 13 -129 73 -250 135 -121 61
-236 124 -255 138 -19 15 -46 32 -60 39 -14 7 -59 37 -100 67 -41 30 -88 62
-105 71 -16 9 -48 31 -70 49 -22 18 -49 35 -60 38 -11 4 -42 27 -70 52 -27 25
-66 54 -85 65 -19 10 -71 54 -115 96 -44 42 -102 91 -130 109 -61 39 -533 513
-557 558 -9 17 -44 61 -78 97 -34 36 -70 81 -80 100 -10 19 -48 66 -84 103
-36 38 -66 75 -66 82 0 8 -13 29 -29 47 -15 18 -38 51 -49 74 -11 22 -28 46
-37 54 -9 8 -25 30 -35 50 -11 21 -30 50 -43 66 -13 16 -39 58 -57 94 -19 36
-47 82 -62 102 -33 42 -268 519 -268 543 0 9 -9 33 -20 55 -11 22 -20 47 -20
57 0 10 -18 55 -40 101 -22 46 -40 92 -40 103 0 11 -7 33 -15 48 -8 16 -19 46
-24 67 -5 22 -23 80 -39 129 -35 103 -59 198 -71 271 -5 28 -16 64 -24 80 -8
17 -16 68 -19 119 -3 57 -10 102 -21 122 -12 23 -17 57 -17 122 0 63 -5 103
-17 133 -16 39 -18 91 -18 578 0 487 2 539 18 578 12 30 17 70 17 133 0 62 5
99 16 120 8 17 19 74 24 127 4 54 15 114 24 134 9 21 16 50 16 66 0 15 9 53
20 85 11 31 20 68 20 81 0 14 6 40 14 58 18 41 84 240 97 291 5 21 14 45 19
55 5 9 21 53 36 96 14 44 35 93 45 110 10 17 19 39 19 48 0 24 237 505 270
548 14 19 41 62 59 95 33 57 67 112 131 205 55 80 95 142 118 184 13 23 43 61
67 86 23 25 50 59 58 75 8 17 50 66 92 110 43 44 83 93 90 108 16 38 531 555
570 572 16 8 72 55 124 104 52 50 101 91 108 91 8 0 35 20 61 44 26 24 68 57
94 72 98 60 141 90 193 134 29 25 80 58 112 74 32 17 74 42 93 56 19 15 100
60 180 100 80 41 161 86 180 100 45 34 280 150 303 150 10 0 52 18 94 40 43
22 86 40 98 40 11 0 56 18 100 40 44 22 87 40 96 40 9 0 45 13 81 29 74 34
167 68 218 81 39 10 112 34 182 62 26 10 60 18 77 18 17 0 53 9 81 20 28 11
72 20 98 20 26 0 67 9 91 20 26 12 65 20 97 20 30 0 76 9 104 20 32 13 74 20
116 20 38 0 80 7 102 16 26 12 82 18 187 23 83 3 157 10 165 16 33 21 111 23
686 22 507 -2 604 -4 618 -16z"/>
<path d="M7540 11821 c-119 -31 -184 -72 -401 -255 -52 -43 -141 -117 -198
-165 -57 -47 -141 -117 -186 -156 -45 -38 -167 -140 -270 -225 -103 -85 -276
-229 -385 -320 -109 -91 -327 -273 -486 -405 -159 -132 -300 -250 -314 -261
-14 -12 -124 -104 -245 -204 -121 -101 -236 -197 -256 -214 -41 -35 -130 -109
-309 -257 -69 -57 -127 -106 -130 -109 -3 -3 -57 -48 -120 -100 -63 -52 -188
-156 -276 -230 -89 -74 -220 -184 -292 -243 -151 -126 -173 -163 -151 -251 10
-42 32 -71 169 -232 10 -12 59 -71 109 -132 105 -126 136 -147 217 -140 63 5
64 6 459 338 147 124 282 236 299 250 17 14 103 85 191 158 151 126 197 164
305 256 25 21 54 45 65 55 97 79 456 378 614 510 108 91 302 252 431 360 129
108 244 203 255 213 248 211 1066 888 1073 888 2 0 164 -134 360 -298 196
-164 454 -378 572 -477 118 -99 280 -233 359 -300 78 -66 160 -133 181 -150
21 -16 123 -101 226 -188 316 -264 375 -314 769 -642 209 -174 389 -324 400
-333 11 -10 87 -73 170 -142 82 -69 159 -133 170 -142 430 -362 425 -358 492
-358 38 0 66 6 88 20 32 20 279 306 360 416 34 47 39 61 39 108 0 30 -6 66
-13 80 -13 23 -147 137 -766 651 -99 83 -189 158 -200 167 -11 9 -64 53 -117
98 l-98 81 0 1082 c-1 1205 4 1125 -69 1174 l-34 23 -561 0 -561 0 -36 -24
c-71 -48 -69 -34 -69 -615 0 -287 -4 -521 -8 -521 -4 0 -100 77 -212 171 -113
94 -324 271 -470 392 -146 122 -267 224 -270 227 -3 3 -72 61 -154 130 -167
138 -230 183 -296 212 -112 48 -297 61 -420 29z"/>
<path d="M7605 10414 c-96 -80 -175 -145 -295 -244 -128 -105 -145 -119 -535
-441 -209 -173 -400 -331 -425 -351 -25 -20 -79 -64 -120 -98 -41 -34 -93 -77
-115 -95 -22 -18 -110 -90 -195 -161 -162 -134 -272 -225 -345 -284 -48 -39
-529 -435 -560 -462 -11 -9 -52 -43 -91 -75 -39 -32 -103 -85 -143 -117 l-71
-59 2 -1306 3 -1306 22 -45 c30 -61 101 -133 165 -167 l53 -28 1042 -3 1043
-2 2 995 3 995 660 0 660 0 5 -992 5 -993 1040 0 1040 0 45 24 c68 35 106 67
139 115 64 93 61 4 61 1422 l0 1291 -131 109 c-73 60 -137 114 -143 119 -13
12 -79 66 -186 152 -41 34 -174 143 -295 243 -525 433 -596 491 -739 610 -83
69 -201 165 -261 215 -61 49 -202 166 -315 259 -316 261 -459 379 -535 441
-27 22 -79 65 -115 95 -224 184 -263 215 -274 217 -6 1 -51 -31 -101 -73z"/>
</g>
</svg>
