<?xml version="1.0" standalone="no"?>
<!DOCTYPE svg PUBLIC "-//W3C//DTD SVG 20010904//EN"
 "http://www.w3.org/TR/2001/REC-SVG-20010904/DTD/svg10.dtd">
<svg version="1.0" xmlns="http://www.w3.org/2000/svg"
 width="1536.000000pt" height="1536.000000pt" viewBox="0 0 1536.000000 1536.000000"
 preserveAspectRatio="xMidYMid meet">

<g transform="translate(0.000000,1536.000000) scale(0.100000,-0.100000)"
fill="#000000" stroke="none">
<path d="M6240 14149 c-74 -4 -171 -13 -214 -18 -44 -6 -170 -11 -280 -11
-117 0 -251 -7 -321 -16 -66 -8 -169 -19 -230 -24 -60 -6 -130 -17 -155 -24
-25 -8 -83 -18 -130 -22 -47 -3 -105 -14 -130 -24 -25 -9 -70 -20 -100 -24
-54 -7 -134 -29 -235 -67 -28 -11 -57 -19 -65 -19 -26 0 -183 -50 -236 -76
-28 -13 -55 -24 -60 -24 -6 0 -48 -16 -94 -36 -47 -19 -101 -41 -120 -48 -41
-16 -361 -183 -437 -229 -172 -105 -275 -174 -383 -261 -36 -28 -81 -63 -100
-77 -112 -84 -508 -487 -598 -609 -30 -41 -73 -95 -95 -120 -21 -25 -48 -61
-58 -80 -11 -19 -42 -66 -69 -105 -63 -89 -169 -271 -230 -395 -104 -211 -140
-293 -203 -470 -66 -185 -78 -221 -89 -265 -6 -22 -19 -69 -29 -105 -36 -129
-51 -186 -65 -260 -7 -41 -19 -86 -25 -100 -6 -14 -17 -88 -25 -165 -7 -77
-20 -165 -27 -195 -9 -33 -20 -161 -27 -315 -6 -143 -16 -285 -21 -315 -14
-80 -23 -3400 -9 -3555 6 -66 17 -255 25 -420 12 -253 17 -309 34 -357 16 -44
21 -82 21 -163 0 -72 5 -117 15 -142 8 -20 18 -61 21 -92 5 -53 18 -106 64
-273 11 -40 20 -83 20 -96 0 -12 11 -49 25 -82 14 -33 25 -70 25 -82 0 -13 16
-58 35 -102 18 -43 37 -92 41 -110 7 -32 54 -159 79 -211 7 -16 30 -68 50
-115 146 -340 422 -773 684 -1074 103 -118 312 -323 432 -422 237 -198 520
-386 751 -501 501 -248 976 -391 1521 -458 465 -57 708 -65 2122 -71 1552 -8
2311 8 2714 56 47 6 127 15 176 21 284 32 715 141 1025 259 160 60 459 198
548 252 34 21 64 38 66 38 5 0 109 62 194 115 73 46 307 225 431 330 272 230
618 641 806 957 168 283 365 701 390 828 4 19 11 40 15 45 14 18 59 140 66
180 4 21 15 57 25 80 9 22 20 60 24 85 3 25 12 63 20 85 17 50 52 201 65 280
5 33 17 85 25 115 8 30 15 95 15 148 0 64 5 104 16 130 13 28 19 91 25 262 5
124 16 308 25 410 14 162 15 398 12 1890 -3 1236 -7 1723 -15 1770 -7 36 -17
182 -23 325 -8 197 -16 278 -31 334 -10 41 -19 102 -20 135 0 34 -4 81 -8 106
-16 83 -72 312 -101 410 -10 36 -22 83 -25 105 -4 21 -15 56 -26 77 -10 20
-19 44 -19 53 0 19 -34 121 -64 195 -13 30 -33 82 -46 115 -50 135 -204 448
-265 540 -19 29 -35 56 -35 61 0 5 -27 47 -60 94 -33 47 -69 101 -79 120 -10
19 -37 55 -58 80 -22 25 -72 88 -111 140 -74 98 -282 318 -458 482 -208 195
-547 432 -787 550 -45 22 -93 48 -107 57 -14 10 -59 32 -100 50 -41 18 -93 41
-115 51 -22 10 -71 30 -110 44 -38 15 -90 35 -115 46 -59 24 -207 70 -228 70
-9 0 -39 8 -67 19 -101 38 -181 60 -235 67 -30 4 -75 15 -100 24 -25 10 -81
21 -125 25 -44 3 -104 13 -134 22 -30 8 -104 19 -165 24 -61 5 -140 13 -176
19 -36 6 -200 16 -365 21 -165 5 -331 14 -370 20 -86 13 -2843 21 -3045 8z
m2903 -1819 c70 -5 145 -14 167 -20 21 -6 164 -15 317 -20 153 -5 294 -14 313
-20 19 -6 81 -15 137 -20 56 -5 115 -16 131 -24 16 -8 56 -19 88 -25 33 -5 75
-16 94 -24 19 -8 59 -17 88 -21 30 -4 70 -16 90 -26 20 -11 44 -20 52 -20 9 0
25 -7 37 -15 12 -9 40 -22 62 -30 63 -22 270 -126 299 -150 15 -12 53 -36 84
-54 60 -33 239 -180 333 -273 151 -149 290 -328 379 -488 26 -47 51 -92 56
-100 15 -26 50 -106 50 -116 0 -5 11 -31 24 -59 27 -55 51 -123 70 -200 7 -28
20 -64 29 -81 9 -17 21 -59 26 -92 5 -34 14 -69 19 -79 6 -10 13 -57 17 -103
4 -47 13 -112 21 -145 14 -55 39 -338 64 -715 7 -102 10 -692 7 -1700 -3
-1341 -6 -1565 -20 -1698 -9 -83 -19 -209 -23 -280 -4 -70 -13 -144 -20 -165
-7 -20 -18 -86 -24 -145 -6 -59 -17 -125 -24 -147 -8 -22 -17 -57 -20 -79 -3
-21 -14 -62 -24 -90 -11 -28 -32 -89 -47 -136 -14 -47 -32 -96 -40 -110 -7
-14 -28 -63 -46 -110 -18 -47 -47 -107 -65 -135 -17 -27 -41 -70 -52 -93 -12
-24 -35 -63 -52 -85 -17 -23 -58 -80 -92 -127 -76 -104 -323 -354 -437 -438
-46 -35 -124 -88 -175 -118 -50 -31 -98 -60 -106 -65 -8 -5 -26 -14 -40 -19
-14 -6 -34 -15 -45 -22 -69 -41 -193 -90 -307 -123 -25 -7 -57 -20 -69 -29
-13 -9 -36 -16 -52 -16 -15 0 -53 -9 -85 -19 -31 -11 -84 -22 -117 -26 -33 -4
-76 -14 -95 -22 -19 -8 -100 -21 -180 -29 -80 -7 -188 -18 -240 -23 -416 -43
-3836 -40 -4100 4 -47 8 -134 17 -195 21 -60 3 -126 13 -145 21 -19 8 -66 20
-105 28 -101 18 -203 45 -255 66 -48 18 -119 43 -185 63 -22 6 -69 27 -105 46
-36 19 -95 49 -131 66 -37 17 -80 41 -95 51 -16 11 -54 37 -84 56 -108 71
-146 100 -225 171 -157 139 -304 301 -396 436 -77 111 -197 330 -198 361 -1 8
-12 30 -26 49 -14 19 -25 44 -25 57 0 13 -9 41 -20 63 -11 22 -20 49 -20 60 0
11 -11 43 -25 70 -14 27 -25 61 -25 75 0 14 -7 42 -16 63 -8 20 -20 78 -25
129 -5 51 -17 112 -25 135 -9 24 -19 95 -24 158 -5 63 -14 131 -20 150 -22 65
-29 544 -29 1930 0 1381 9 2066 28 2150 6 25 15 103 21 173 6 70 18 146 25
168 8 22 18 77 21 122 4 45 15 106 26 136 10 30 18 66 18 80 0 14 11 49 25 76
13 28 25 57 25 65 0 18 33 106 66 176 13 28 24 56 24 61 0 16 57 131 90 183
16 25 36 59 44 77 37 81 293 394 392 480 110 95 242 198 305 238 124 79 134
85 159 95 14 6 32 15 40 20 8 6 26 15 40 21 14 6 42 19 62 30 20 10 43 19 50
19 7 0 34 11 60 25 26 14 53 25 60 25 7 0 29 9 49 19 20 11 58 22 85 26 27 4
64 14 83 21 18 8 63 19 98 24 36 6 79 18 95 26 16 8 75 19 131 24 56 5 118 14
137 20 19 6 161 15 315 20 155 5 303 14 330 21 28 6 124 15 215 19 248 10
2675 11 2823 0z"/>
<path d="M6605 11589 c-104 -4 -365 -13 -580 -18 -335 -9 -411 -14 -541 -35
-83 -13 -166 -31 -186 -39 -19 -8 -55 -18 -79 -22 -24 -4 -69 -14 -99 -22 -64
-18 -293 -117 -332 -144 -14 -11 -29 -19 -32 -19 -13 0 -94 -57 -171 -121
-100 -82 -257 -245 -280 -288 -9 -18 -31 -51 -48 -75 -18 -23 -45 -69 -61
-101 -16 -33 -39 -82 -53 -109 -13 -27 -28 -65 -33 -85 -5 -20 -23 -74 -40
-121 -18 -47 -39 -125 -46 -175 -8 -49 -21 -121 -30 -160 -8 -38 -14 -110 -14
-160 0 -49 -4 -117 -10 -150 -5 -33 -16 -163 -25 -289 -12 -190 -15 -473 -15
-1610 0 -862 4 -1424 11 -1496 17 -198 29 -369 38 -545 5 -93 13 -181 18 -195
6 -14 14 -60 18 -104 4 -44 22 -122 41 -180 18 -55 41 -123 50 -151 27 -79
131 -291 162 -327 15 -18 34 -45 41 -60 16 -31 188 -228 199 -228 4 0 24 -16
43 -35 101 -97 367 -254 464 -272 17 -3 47 -14 67 -24 21 -11 45 -19 55 -19
10 0 50 -12 88 -25 39 -14 87 -25 108 -25 21 0 72 -9 115 -20 45 -11 145 -23
242 -29 91 -6 230 -17 310 -26 127 -14 353 -15 1815 -12 1219 2 1682 6 1715
15 25 6 119 16 210 22 113 7 185 16 228 30 35 11 85 20 110 20 26 1 65 8 87
16 22 9 63 22 92 29 28 7 62 20 75 29 12 9 32 16 44 16 28 0 113 39 236 107
233 130 492 404 600 633 14 30 35 76 48 103 12 26 28 68 35 95 16 56 42 135
57 177 25 72 38 133 38 185 0 30 7 82 16 115 10 41 18 150 24 345 5 157 14
357 20 445 6 88 13 617 16 1175 5 857 3 1076 -11 1405 -9 215 -21 505 -25 645
-5 140 -13 271 -19 290 -6 19 -15 82 -20 140 -6 58 -19 130 -29 160 -11 30
-24 73 -30 95 -39 148 -127 337 -223 480 -73 109 -226 271 -330 348 -86 65
-193 134 -221 143 -13 3 -63 26 -113 50 -99 47 -195 79 -268 89 -26 3 -64 13
-85 22 -159 67 -830 95 -2337 99 -528 1 -1045 -2 -1150 -7z m3612 -849 c151
-25 311 -159 361 -303 37 -106 46 -191 29 -272 -27 -127 -52 -178 -125 -253
-76 -79 -117 -106 -219 -146 -65 -26 -80 -28 -166 -24 -62 2 -102 9 -118 19
-13 9 -36 19 -52 23 -43 10 -128 69 -179 123 -45 49 -98 138 -98 166 0 7 -10
31 -22 52 -17 32 -22 56 -22 125 0 69 5 93 22 125 12 21 22 47 22 57 0 17 24
59 80 135 29 40 129 123 148 123 5 0 20 9 34 19 43 34 192 49 305 31z m-2237
-639 c76 -5 126 -13 147 -24 18 -9 65 -21 105 -26 40 -5 91 -16 113 -25 22 -8
50 -15 62 -16 12 0 43 -11 69 -25 26 -14 54 -25 63 -25 9 0 30 -9 46 -20 17
-11 37 -20 45 -20 8 0 26 -7 40 -15 14 -7 61 -32 105 -54 44 -23 98 -54 120
-71 22 -16 51 -34 63 -40 28 -12 115 -77 225 -169 158 -129 403 -421 486 -576
16 -30 39 -67 50 -81 12 -15 21 -33 21 -41 0 -8 9 -31 19 -51 40 -78 71 -150
71 -163 0 -8 9 -29 20 -47 11 -18 20 -42 20 -55 0 -12 9 -42 20 -65 11 -24 24
-69 29 -100 5 -32 16 -75 24 -97 15 -39 42 -347 41 -470 -1 -153 -26 -422 -44
-470 -10 -27 -21 -72 -24 -99 -3 -27 -13 -60 -21 -72 -8 -12 -17 -42 -21 -66
-4 -24 -15 -57 -25 -74 -11 -17 -19 -38 -19 -46 0 -7 -9 -31 -20 -53 -11 -21
-24 -52 -30 -69 -16 -49 -128 -251 -173 -311 -12 -16 -53 -72 -92 -124 -204
-275 -483 -510 -775 -652 -47 -22 -92 -47 -100 -53 -16 -14 -84 -39 -169 -63
-30 -8 -64 -21 -75 -28 -12 -7 -39 -16 -61 -20 -22 -4 -66 -15 -97 -26 -32
-10 -74 -19 -95 -19 -21 0 -76 -10 -123 -22 -75 -19 -113 -21 -320 -21 -207 0
-245 2 -320 21 -47 12 -105 22 -130 22 -25 1 -63 8 -85 16 -22 9 -62 20 -89
26 -28 5 -67 18 -88 29 -20 10 -46 19 -57 19 -20 0 -140 46 -176 68 -11 6 -67
36 -125 65 -287 147 -560 377 -757 639 -55 73 -108 147 -117 163 -9 17 -28 48
-41 70 -13 22 -40 74 -60 115 -20 41 -45 92 -56 112 -10 20 -19 43 -19 50 0 7
-8 29 -19 48 -10 19 -22 51 -26 70 -4 19 -15 51 -25 70 -10 19 -21 57 -25 85
-4 27 -14 63 -22 79 -9 17 -19 77 -24 140 -5 61 -15 136 -24 166 -21 76 -20
340 1 435 8 39 19 117 24 175 6 69 15 120 29 150 11 25 21 58 21 73 0 15 9 45
20 67 11 22 20 50 20 62 0 13 11 46 25 73 13 28 25 54 25 58 0 19 93 210 115
237 6 8 27 44 45 80 18 36 51 88 74 117 23 28 65 82 93 120 134 174 382 397
553 498 28 17 63 39 77 49 29 22 133 75 147 76 5 0 17 6 25 14 15 13 31 20
144 62 23 8 60 24 83 35 22 10 47 19 56 19 8 0 35 7 59 16 24 9 74 20 111 25
38 4 88 18 112 29 34 15 67 20 138 21 51 0 116 5 143 9 50 9 213 5 425 -9z"/>
<path d="M7480 9371 c-31 -4 -65 -13 -76 -19 -11 -5 -54 -15 -96 -21 -87 -12
-127 -27 -288 -105 -137 -67 -158 -80 -281 -172 -208 -156 -399 -412 -491
-659 -87 -232 -101 -308 -102 -560 -1 -210 11 -316 44 -391 10 -23 21 -57 25
-75 18 -90 123 -308 201 -419 59 -85 187 -231 244 -279 91 -76 182 -142 227
-167 26 -13 54 -31 63 -39 9 -8 21 -15 26 -15 5 0 25 -8 44 -19 54 -29 160
-69 213 -81 27 -6 58 -17 70 -24 12 -8 51 -17 87 -21 36 -4 108 -13 160 -21
121 -18 198 -18 296 0 44 8 111 17 149 21 39 3 81 13 94 22 13 8 49 21 80 28
121 28 247 90 428 208 81 53 314 282 353 347 14 23 40 61 57 85 58 77 149 277
174 380 6 22 17 60 25 85 35 105 38 129 38 370 0 241 -3 265 -38 370 -8 25
-19 63 -25 85 -16 67 -43 139 -63 167 -10 14 -18 31 -18 37 0 14 -45 105 -70
141 -9 14 -33 50 -53 81 -51 79 -207 249 -291 317 -131 106 -139 111 -325 202
-149 73 -209 94 -300 105 -30 4 -70 14 -90 23 -28 12 -82 16 -236 18 -110 1
-225 -1 -255 -5z"/>
</g>
</svg>
