<?xml version="1.0" encoding="UTF-8"?>
<svg version="1.1" viewBox="0 0 1600 744" width="1280" height="1280" xmlns="http://www.w3.org/2000/svg">
<path transform="translate(290 280)" d="m0 0c0.726-0.00165 1.45-0.0033 2.2-5e-3 2.45-0.00434 4.9-0.00152 7.35 0.00123 1.77-0.00165 3.55-0.00373 5.32-0.00622 4.91-0.00558 9.81-0.00489 14.7-0.00322 5.33 7.29e-4 10.7-0.00429 16-0.00858 10.6-0.00759 21.2-0.00977 31.7-0.0103 12.7-9.12e-4 25.3-0.00758 38-0.0143 29.9-0.0157 59.8-0.0217 89.7-0.0264 15.2-0.00238 30.4-0.00609 45.6-0.01 48.8-0.0127 97.5-0.0234 146-0.0268 2.33-1.62e-4 4.66-3.28e-4 6.99-4.94e-4 4.67-3.34e-4 9.35-6.64e-4 14-9.95e-4 5.47-3.87e-4 10.9-7.77e-4 16.4-0.00117 1.57-1.12e-4 3.13-2.24e-4 4.7-3.34e-4 50.3-0.00355 101-0.0186 151-0.0419 36.1-0.0167 72.3-0.0322 108-0.0367 1.11-1.4e-4 1.11-1.4e-4 2.25-2.83e-4 16.3-0.00202 32.6-0.00318 48.9-0.00353 5.84-1.36e-4 11.7-3.45e-4 17.5-5.93e-4 1.45-6.16e-5 2.9-1.2e-4 4.36-1.75e-4 23.2-9.2e-4 46.3-0.0109 69.5-0.0255 24-0.015 47.9-0.0192 71.9-0.0109 13.8 0.00447 27.6 5.51e-4 41.5-0.0152 9.22-0.00971 18.4-0.00861 27.7 0.00144 5.26 0.00542 10.5 0.00602 15.8-0.00651 4.78-0.0113 9.57-0.00886 14.4 0.00467 1.72 0.00244 3.45-1.78e-4 5.17-0.0084 2.34-0.0104 4.67-0.00234 7.01 0.0103 1.29-2.44e-4 2.59-4.88e-4 3.92-7.4e-4 7.44 0.747 13.8 3.66 18.7 9.37 0.938 2.87 0.938 2.87 1 5 0.66-0.33 1.32-0.66 2-1 0.855 5.38 1.29 10.7 1.55 16.1 0.042 0.871 0.0841 1.74 0.127 2.64 0.434 9.7 0.485 19.4 0.489 29.1 0.00323 1.92 0.00659 3.85 0.0101 5.77 0.00592 3.99 0.00785 7.97 0.00725 12-1.02e-4 5.09 0.0137 10.2 0.0308 15.3 0.0111 3.95 0.0131 7.9 0.0126 11.9 0.00117 1.88 0.00555 3.75 0.0133 5.63 0.00986 2.62 0.0069 5.24 8.95e-4 7.86 0.00562 0.759 0.0112 1.52 0.017 2.3-0.0492 8.49-1.26 16.1-7.26 22.5-6.14 4.83-11.7 6.25-19.4 6.25-0.729 0.00305-1.46 0.00611-2.21 0.00925-2.45 0.00781-4.9 0.00136-7.35-0.00498-1.78 0.00269-3.56 0.00626-5.34 0.0106-4.91 0.00948-9.83 0.00645-14.7 0.00144-5.34-0.00326-10.7 0.00501-16 0.0118-9.36 0.0103-18.7 0.0131-28.1 0.0111-13.9-0.00304-27.8 0.00526-41.8 0.0157-26.3 0.0194-52.6 0.025-78.9 0.0261-2.9 1.29e-4 -5.8 2.65e-4 -8.71 4.07e-4 -0.72 3.4e-5 -1.44 6.8e-5 -2.18 1.03e-4 -16 8.17e-4 -31.9 0.0052-47.9 0.0102-6.57 0.00206-13.1 0.00404-19.7 0.00603-1.09 3.32e-4 -1.09 3.32e-4 -2.2 6.7e-4 -41.6 0.0126-83.2 0.0209-125 0.02-1.56-3.16e-5 -3.11-6.3e-5 -4.67-9.44e-5 -7.03-1.47e-4 -14.1-3.23e-4 -21.1-5.08e-4 -3.13-8.22e-5 -6.27-1.63e-4 -9.4-2.43e-4 -1.57-4.08e-5 -3.14-8.28e-5 -4.71-1.26e-4 -49.6-0.00136-99.2 0.0133-149 0.0411-12.5 7e-3 -25 0.0139-37.5 0.0205-0.77 4.06e-4 -1.54 8.11e-4 -2.33 0.00123-23.7 0.0124-47.4 0.02-71.1 0.0225-0.744 7.99e-5 -1.49 1.6e-4 -2.26 2.42e-4 -16.3 0.00171-32.7 0.00223-49 0.00166-5.85-1.93e-4 -11.7-2.97e-4 -17.5-3.57e-4 -1.45-1.58e-5 -2.91-3.62e-5 -4.36-6.12e-5 -23.2-3.53e-4 -46.4 0.011-69.6 0.0283-24 0.0178-48 0.021-72 0.00738-13.8-0.00741-27.7-0.00368-41.5 0.0159-9.24 0.012-18.5 0.00946-27.7-0.00494-5.27-0.0078-10.5-0.0092-15.8 0.00691-4.79 0.0145-9.58 0.0107-14.4-0.00785-1.72-0.00345-3.45-1.67e-4 -5.17 0.0106-10.1 0.0588-18.4-0.115-26.6-6.76-7.62-9.31-8.4-17.1-8.41-28.9-0.00496-0.98-0.00993-1.96-0.015-2.97-0.0145-3.22-0.0214-6.44-0.0269-9.66-0.00283-1.11-0.00565-2.21-0.00857-3.35-0.015-5.85-0.0242-11.7-0.0285-17.5-0.00549-6.02-0.0295-12-0.058-18.1-0.0187-4.65-0.0238-9.3-0.0254-13.9-0.00302-2.22-0.011-4.44-0.0242-6.66-0.0172-3.11-0.0152-6.22-0.00869-9.33-0.00921-0.905-0.0184-1.81-0.0279-2.74 0.0601-9.29 1.98-17.1 8.48-23.9 6.19-5.51 11.9-6.82 20.1-6.82z" fill="#FBFEFE"/>
<path transform="translate(290 280)" d="m0 0c0.726-0.00165 1.45-0.0033 2.2-5e-3 2.45-0.00434 4.9-0.00152 7.35 0.00123 1.77-0.00165 3.55-0.00373 5.32-0.00622 4.91-0.00558 9.81-0.00489 14.7-0.00322 5.33 7.29e-4 10.7-0.00429 16-0.00858 10.6-0.00759 21.2-0.00977 31.7-0.0103 12.7-9.12e-4 25.3-0.00758 38-0.0143 29.9-0.0157 59.8-0.0217 89.7-0.0264 15.2-0.00238 30.4-0.00609 45.6-0.01 48.8-0.0127 97.5-0.0234 146-0.0268 2.33-1.62e-4 4.66-3.28e-4 6.99-4.94e-4 4.67-3.34e-4 9.35-6.64e-4 14-9.95e-4 5.47-3.87e-4 10.9-7.77e-4 16.4-0.00117 1.57-1.12e-4 3.13-2.24e-4 4.7-3.34e-4 50.3-0.00355 101-0.0186 151-0.0419 36.1-0.0167 72.3-0.0322 108-0.0367 1.11-1.4e-4 1.11-1.4e-4 2.25-2.83e-4 16.3-0.00202 32.6-0.00318 48.9-0.00353 5.84-1.36e-4 11.7-3.45e-4 17.5-5.93e-4 1.45-6.16e-5 2.9-1.2e-4 4.36-1.75e-4 23.2-9.2e-4 46.3-0.0109 69.5-0.0255 24-0.015 47.9-0.0192 71.9-0.0109 13.8 0.00447 27.6 5.51e-4 41.5-0.0152 9.22-0.00971 18.4-0.00861 27.7 0.00144 5.26 0.00542 10.5 0.00602 15.8-0.00651 4.78-0.0113 9.57-0.00886 14.4 0.00467 1.72 0.00244 3.45-1.78e-4 5.17-0.0084 2.34-0.0104 4.67-0.00234 7.01 0.0103 1.29-2.44e-4 2.59-4.88e-4 3.92-7.4e-4 7.44 0.747 13.8 3.66 18.7 9.37 0.938 2.87 0.938 2.87 1 5 0.66-0.33 1.32-0.66 2-1 0.855 5.38 1.29 10.7 1.55 16.1 0.042 0.871 0.0841 1.74 0.127 2.64 0.434 9.7 0.485 19.4 0.489 29.1 0.00323 1.92 0.00659 3.85 0.0101 5.77 0.00592 3.99 0.00785 7.97 0.00725 12-1.02e-4 5.09 0.0137 10.2 0.0308 15.3 0.0111 3.95 0.0131 7.9 0.0126 11.9 0.00117 1.88 0.00555 3.75 0.0133 5.63 0.00986 2.62 0.0069 5.24 8.95e-4 7.86 0.00562 0.759 0.0112 1.52 0.017 2.3-0.0492 8.49-1.26 16.1-7.26 22.5-6.14 4.83-11.7 6.25-19.4 6.25-0.729 0.00305-1.46 0.00611-2.21 0.00925-2.45 0.00781-4.9 0.00136-7.35-0.00498-1.78 0.00269-3.56 0.00626-5.34 0.0106-4.91 0.00948-9.83 0.00645-14.7 0.00144-5.34-0.00326-10.7 0.00501-16 0.0118-9.36 0.0103-18.7 0.0131-28.1 0.0111-13.9-0.00304-27.8 0.00526-41.8 0.0157-26.3 0.0194-52.6 0.025-78.9 0.0261-2.9 1.29e-4 -5.8 2.65e-4 -8.71 4.07e-4 -0.72 3.4e-5 -1.44 6.8e-5 -2.18 1.03e-4 -16 8.17e-4 -31.9 0.0052-47.9 0.0102-6.57 0.00206-13.1 0.00404-19.7 0.00603-1.09 3.32e-4 -1.09 3.32e-4 -2.2 6.7e-4 -41.6 0.0126-83.2 0.0209-125 0.02-1.56-3.16e-5 -3.11-6.3e-5 -4.67-9.44e-5 -7.03-1.47e-4 -14.1-3.23e-4 -21.1-5.08e-4 -3.13-8.22e-5 -6.27-1.63e-4 -9.4-2.43e-4 -1.57-4.08e-5 -3.14-8.28e-5 -4.71-1.26e-4 -49.6-0.00136-99.2 0.0133-149 0.0411-12.5 7e-3 -25 0.0139-37.5 0.0205-0.77 4.06e-4 -1.54 8.11e-4 -2.33 0.00123-23.7 0.0124-47.4 0.02-71.1 0.0225-0.744 7.99e-5 -1.49 1.6e-4 -2.26 2.42e-4 -16.3 0.00171-32.7 0.00223-49 0.00166-5.85-1.93e-4 -11.7-2.97e-4 -17.5-3.57e-4 -1.45-1.58e-5 -2.91-3.62e-5 -4.36-6.12e-5 -23.2-3.53e-4 -46.4 0.011-69.6 0.0283-24 0.0178-48 0.021-72 0.00738-13.8-0.00741-27.7-0.00368-41.5 0.0159-9.24 0.012-18.5 0.00946-27.7-0.00494-5.27-0.0078-10.5-0.0092-15.8 0.00691-4.79 0.0145-9.58 0.0107-14.4-0.00785-1.72-0.00345-3.45-1.67e-4 -5.17 0.0106-10.1 0.0588-18.4-0.115-26.6-6.76-7.62-9.31-8.4-17.1-8.41-28.9-0.00496-0.98-0.00993-1.96-0.015-2.97-0.0145-3.22-0.0214-6.44-0.0269-9.66-0.00283-1.11-0.00565-2.21-0.00857-3.35-0.015-5.85-0.0242-11.7-0.0285-17.5-0.00549-6.02-0.0295-12-0.058-18.1-0.0187-4.65-0.0238-9.3-0.0254-13.9-0.00302-2.22-0.011-4.44-0.0242-6.66-0.0172-3.11-0.0152-6.22-0.00869-9.33-0.00921-0.905-0.0184-1.81-0.0279-2.74 0.0601-9.29 1.98-17.1 8.48-23.9 6.19-5.51 11.9-6.82 20.1-6.82zm996 26.6c-3.01 0.692-5.82 0.642-8.91 0.64-0.671 7.81e-4 -1.34 0.00156-2.03 0.00237-2.26 0.0014-4.53-0.00438-6.79-0.0101-1.64-4.74e-4 -3.28-5.06e-4 -4.92-1.35e-4 -4.54-2.56e-4 -9.08-0.00679-13.6-0.0143-4.93-0.00702-9.85-0.0082-14.8-0.0101-8.64-0.0041-17.3-0.0119-25.9-0.022-12.9-0.015-25.7-0.0243-38.6-0.0321-20.3-0.0125-40.6-0.0283-60.9-0.0463-31.5-0.0279-63.1-0.046-94.6-0.0602-7.53-0.00341-15.1-0.00693-22.6-0.0105-1.38-6.47e-4 -2.76-0.00129-4.14-0.00194-2.77-0.0013-5.54-0.0026-8.3-0.00389-2.78-0.0013-5.56-0.0026-8.33-0.0039-32-0.015-64.1-0.0315-96.1-0.0496-2.17-0.00123-4.35-0.00245-6.52-0.00367-33.5-0.0188-66.9-0.0407-100-0.0696-1.08-9.34e-4 -1.08-9.34e-4 -2.18-0.00189-11.6-0.01-23.2-0.0202-34.8-0.0305-33.4-0.0295-66.9-0.0565-100-0.0702-0.687-2.81e-4 -1.37-5.63e-4 -2.08-8.52e-4 -14.4-0.00587-28.8-0.0109-43.2-0.0148-6.75-0.00184-13.5-0.00387-20.2-6e-3 -0.664-2.07e-4 -1.33-4.13e-4 -2.01-6.27e-4 -22.1-0.00697-44.1-0.0284-66.2-0.0562-21.5-0.0268-43-0.0394-64.5-0.0371-12.8 8.7e-4 -25.6-0.00953-38.3-0.0358-8.53-0.0165-17.1-0.0185-25.6-0.00868-4.87 0.00519-9.73 0.00395-14.6-0.0149-4.42-0.017-8.85-0.0156-13.3 5.35e-4 -1.59 0.00257-3.19-0.00161-4.78-0.0133-8.13-0.0559-14.6-0.0102-21.6 4.51-0.691 0.318-1.38 0.635-2.1 0.963-3.03 1.65-3.69 3.88-4.9 7.04-0.449 3.35-0.449 3.35-0.388 6.94-0.00526 0.666-0.0105 1.33-0.0159 2.02-0.0131 2.18-0.00449 4.37 0.00568 6.55-0.00202 1.53-0.00494 3.05-0.0087 4.58-0.00441 3.19 0.00197 6.38 0.016 9.57 0.0171 4.08 0.00724 8.17-0.0107 12.3-0.0109 3.15-0.00738 6.3 3.83e-4 9.45 2e-3 1.51-4.38e-4 3.01-0.00744 4.52-0.00765 2.11 0.00403 4.21 0.0207 6.32 0.00239 1.2 0.00477 2.39 0.00723 3.63 0.536 4.48 2.07 7.12 5.55 9.95 5.25 3.02 9.61 4.59 15.7 4.9 0.973 0.0514 0.973 0.0514 1.97 0.104 7.6 0.365 15.2 0.371 22.8 0.358 1.63 0.00105 3.27 0.00253 4.9 0.0044 4.46 0.00387 8.93 0.00158 13.4-0.00178 4.86-0.00255 9.73 7.27e-4 14.6 0.00324 8.52 0.00361 17 0.00351 25.6 9.53e-4 12.7-0.00379 25.3-0.00185 38 0.00121 22.6 0.00526 45.2 0.00481 67.9 0.00192 19.8-0.00252 39.6-0.00317 59.4-0.00198 1.97 1.15e-4 1.97 1.15e-4 3.98 2.31e-4 5.33 3.11e-4 10.7 6.29e-4 16 9.6e-4 14.9 9.17e-4 29.8 0.00149 44.7 0.00179 0.678 1.36e-5 1.36 2.73e-5 2.06 4.14e-5 21.6 4.09e-4 43.2-7.17e-4 64.8-0.00289 0.701-7.02e-5 1.4-1.4e-4 2.12-2.13e-4 11.4-0.00114 22.8-0.00236 34.1-0.00359 45.1-0.00486 90.3-0.00463 135 2.31e-4 11.4 0.00122 22.8 0.00243 34.1 0.00357 0.701 7.04e-5 1.4 1.41e-4 2.12 2.13e-4 21.6 0.00216 43.2 0.00307 64.8 0.00264 1.02-2.04e-5 1.02-2.04e-5 2.05-4.12e-5 14.9-3.12e-4 29.8-9.46e-4 44.6-0.00187 5.99-3.7e-4 12-7.19e-4 18-0.00107 1.96-1.19e-4 1.96-1.19e-4 3.97-2.4e-4 19.8-0.00114 39.6 1.94e-4 59.4 0.00272 22.5 0.00286 45 0.00215 67.5-0.00328 12.6-0.00294 25.2-0.00312 37.8 6.46e-4 8.41 0.00224 16.8 8.53e-4 25.2-0.0035 4.79-0.00238 9.58-0.00318 14.4 4.06e-4 4.36 0.00323 8.72 0.00185 13.1-0.00318 1.57-0.00101 3.13-3.45e-4 4.7 0.00221 15.6 0.794 15.6 0.794 30.2-3.57 0.771-0.432 1.54-0.864 2.34-1.31 5.22-5.14 7.55-11.1 7.81-18.4-0.0221-2.29-0.0731-4.58-0.148-6.88-0.0229-1.24-0.0458-2.47-0.0693-3.74-0.0537-2.67-0.117-5.33-0.195-8-0.104-3.7-0.153-7.41-0.188-11.1-0.0317-3.07-0.0817-6.14-0.136-9.21-0.0241-1.48-0.0428-2.97-0.0558-4.46-0.0885-11.3-0.0885-11.3-4.73-21.5-5.15-3.83-14.4-7.28-20.7-5.52z" fill="#87473C"/>
<path transform="translate(291 280)" d="m0 0c0.729-0.00293 1.46-0.00586 2.21-0.00888 2.44-0.00738 4.89-5.29e-4 7.33 0.00625 1.78-0.00239 3.56-0.00566 5.33-0.00972 4.9-0.00864 9.81-0.00478 14.7 0.00106 5.33 0.00416 10.7-0.00323 16-0.00915 9.34-0.00878 18.7-0.0101 28-0.0065 13.9 0.0053 27.8-7.79e-4 41.7-0.00908 25.5-0.0148 51.1-0.0171 76.6-0.0147 3.62 3.38e-4 7.24 6.61e-4 10.9 9.66e-4 1.08 9.16e-5 1.08 9.16e-5 2.18 1.85e-4 15.9 0.00127 31.8-0.00133 47.8-0.00471 3.63-7.71e-4 7.27-0.00152 10.9-0.00227 1.46-3.02e-4 2.92-6.04e-4 4.38-9.06e-4 0.723-1.5e-4 1.45-2.99e-4 2.19-4.54e-4 1.46-3.04e-4 2.93-6.08e-4 4.39-9.14e-4 41.5-0.00867 83-0.0133 125-0.00905 0.769 7.81e-5 1.54 1.56e-4 2.33 2.37e-4 8.57 8.73e-4 17.1 0.0018 25.7 0.00275 1.16 1.28e-4 1.16 1.28e-4 2.35 2.59e-4 6.43 7.11e-4 6.43 7.11e-4 9.39 0.00104 49.5 0.00554 99-0.00201 149-0.0208 12.5-0.00472 25-0.0094 37.4-0.0138 0.768-2.73e-4 1.54-5.47e-4 2.33-8.28e-4 23.7-0.00837 47.3-0.0131 71-0.0139 1.11-3.95e-5 1.11-3.95e-5 2.25-7.99e-5 16.3-5.41e-4 32.6-1.68e-4 48.9 0.00104 5.84 4.26e-4 11.7 7.91e-4 17.5 0.00113 1.45 8.53e-5 2.9 1.74e-4 4.36 2.67e-4 23.1 0.00145 46.3-0.00568 69.4-0.017 24-0.0116 47.9-0.0122 71.9-1.57e-4 13.8 0.00665 27.6 0.00495 41.4-0.00859 9.22-0.00821 18.4-0.00559 27.7 0.00598 5.26 0.00629 10.5 0.00777 15.8-0.00386 4.78-0.0105 9.56-0.00724 14.3 0.0071 1.72 0.00274 3.44 4.12e-4 5.17-0.00751 2.34-0.01 4.67-0.00153 7 0.0115 1.29-2.05e-5 2.59-4.09e-5 3.92-6.2e-5 7.44 0.749 13.8 3.66 18.7 9.37 0.938 2.87 0.938 2.87 1 5 0.66-0.33 1.32-0.66 2-1 0.855 5.38 1.29 10.7 1.55 16.1 0.042 0.871 0.0841 1.74 0.127 2.64 0.434 9.7 0.485 19.4 0.489 29.1 0.00323 1.92 0.00659 3.85 0.0101 5.77 0.00592 3.99 0.00785 7.97 0.00725 12-1.02e-4 5.09 0.0137 10.2 0.0308 15.3 0.0111 3.95 0.0131 7.9 0.0126 11.9 0.00117 1.88 0.00555 3.75 0.0133 5.63 0.00986 2.62 0.0069 5.24 8.95e-4 7.86 0.00562 0.759 0.0112 1.52 0.017 2.3-0.0492 8.49-1.26 16.1-7.26 22.5-6.94 5.46-13.2 6.31-21.8 6.19-0.862-6.45e-4 -1.72-0.00129-2.61-0.00195-6.36-0.0448-6.36-0.0448-8.64-1.19v-2c2.31-0.33 4.62-0.66 7-1-0.33-0.66-0.66-1.32-1-2 0.33-0.33 0.66-0.66 1-1-0.615-0.133-1.23-0.266-1.86-0.402-0.808-0.177-1.62-0.353-2.45-0.535-0.801-0.174-1.6-0.348-2.43-0.527-2.26-0.535-2.26-0.535-5.26-1.54v-2c-0.792-0.0198-1.58-0.0396-2.4-0.0601-3.6-0.0954-7.19-0.205-10.8-0.315-1.25-0.0309-2.49-0.0619-3.78-0.0938-1.8-0.058-1.8-0.058-3.64-0.117-1.1-0.0314-2.21-0.0628-3.35-0.0952-4.2-0.44-7.04-1.31-10-4.32-2.47-0.332-4.83-0.517-7.31-0.617-0.824-0.0376-1.65-0.0753-2.5-0.114-14.5-0.566-29-0.405-43.5-0.391-4.7 0.00346-9.4 0.00106-14.1-5.77e-4 -8.22-0.00207-16.4-4.45e-4 -24.7 0.00364-12.2 0.00605-24.5 0.00633-36.7 0.00546-20.6-0.00131-41.1 0.00202-61.7 0.00802-20.4 0.00592-40.7 0.00977-61.1 0.0109-1.27 6.87e-5 -2.53 1.37e-4 -3.84 2.08e-4 -6.44 3.38e-4 -12.9 6.4e-4 -19.3 9.27e-4 -45.6 0.0021-91.1 0.00883-137 0.0183-11 0.00229-22.1 0.00457-33.1 0.00677-0.684 1.37e-4 -1.37 2.74e-4 -2.07 4.15e-4 -31.8 0.00635-63.7 0.0101-95.5 0.0131-2.07 1.98e-4 -4.14 3.97e-4 -6.2 5.97e-4 -13.7 0.00132-27.4 0.00259-41.1 0.00384-27.9 0.00254-55.8 0.00536-83.7 0.00835-1.28 1.37e-4 -2.57 2.75e-4 -3.89 4.16e-4 -85.7 0.0092-171 0.025-257 0.0419-0.33 0.99-0.66 1.98-1 3h-3c0.33 0.66 0.66 1.32 1 2h-2v2h-20c0.33-0.99 0.66-1.98 1-3-1.18-0.0412-2.35-0.0825-3.56-0.125-6.04-0.739-9.26-4.55-13.3-8.81-3.36-5.84-3.48-11.9-3.46-18.4-0.00511-0.911-0.0102-1.82-0.0155-2.76-0.0138-2.99-0.0129-5.99-0.0106-8.98-0.00389-2.09-0.00822-4.18-0.013-6.26-0.00745-4.37-0.00718-8.73-0.00191-13.1 0.00581-5.6-0.0112-11.2-0.0343-16.8-0.0147-4.31-0.0156-8.61-0.0125-12.9-5.14e-4 -2.06-0.00576-4.13-0.0158-6.19-0.0123-2.88-0.0056-5.76 0.00601-8.65-0.00764-0.854-0.0153-1.71-0.0232-2.59 0.0399-4.47 0.198-7 3.4-10.4 0.714-2.65 0.714-2.65 1-5 13.7-4.34 28.3-3.08 42.4-2.25 0.691 0.0366 1.38 0.0732 2.09 0.111 1.99 0.109 3.98 0.241 5.96 0.373 1.16 0.0744 2.31 0.149 3.51 0.226 3.2 0.576 4.74 1.22 7 3.54v3c-7.26 0.33-14.5 0.66-22 1-0.33 0.66-0.66 1.32-1 2-1.55 0.895-3.14 1.72-4.75 2.5-0.861 0.423-1.72 0.846-2.61 1.28-2.64 1.22-2.64 1.22-5.43 2.23-0.731 0.327-1.46 0.655-2.21 0.992-0.761 2.39-0.761 2.39-1 5-0.497 0.863-0.497 0.863-1 1.74-1.36 3.07-1.25 5.62-1.26 8.98-0.0035 0.667-0.00701 1.33-0.0106 2.02-0.00878 2.2-0.00298 4.4 0.00378 6.6-0.00135 1.53-0.00329 3.06-0.0058 4.6-0.00295 3.21 0.00133 6.42 0.0107 9.62 0.0114 4.11 0.00483 8.22-0.00714 12.3-0.00723 3.16-0.00492 6.32 2.56e-4 9.49 0.00133 1.52-2.99e-4 3.03-0.00496 4.55-0.00509 2.12 0.00267 4.24 0.0138 6.35 0.00159 1.2 0.00318 2.41 0.00482 3.65 0.246 2.97 0.626 4.61 2.25 7.07 5.4 4.34 11 6.32 17.9 6.67 0.648 0.034 1.3 0.0679 1.97 0.103 7.6 0.362 15.2 0.367 22.8 0.355 1.63 0.00105 3.27 0.00253 4.9 0.0044 4.46 0.00387 8.93 0.00158 13.4-0.00178 4.86-0.00255 9.73 7.27e-4 14.6 0.00324 8.52 0.00361 17 0.00351 25.6 9.53e-4 12.7-0.00379 25.3-0.00185 38 0.00121 22.6 0.00526 45.2 0.00481 67.9 0.00192 19.8-0.00252 39.6-0.00317 59.4-0.00198 1.97 1.15e-4 1.97 1.15e-4 3.98 2.31e-4 5.33 3.11e-4 10.7 6.29e-4 16 9.6e-4 14.9 9.17e-4 29.8 0.00149 44.7 0.00179 0.678 1.36e-5 1.36 2.73e-5 2.06 4.14e-5 21.6 4.09e-4 43.2-7.17e-4 64.8-0.00289 0.701-7.02e-5 1.4-1.4e-4 2.12-2.13e-4 11.4-0.00114 22.8-0.00236 34.1-0.00359 45.1-0.00486 90.3-0.00463 135 2.31e-4 11.4 0.00122 22.8 0.00243 34.1 0.00357 0.701 7.04e-5 1.4 1.41e-4 2.12 2.13e-4 21.6 0.00216 43.2 0.00307 64.8 0.00264 1.02-2.04e-5 1.02-2.04e-5 2.05-4.12e-5 14.9-3.12e-4 29.8-9.46e-4 44.6-0.00187 5.99-3.7e-4 12-7.19e-4 18-0.00107 1.96-1.19e-4 1.96-1.19e-4 3.97-2.4e-4 19.8-0.00114 39.6 1.94e-4 59.4 0.00272 22.5 0.00286 45 0.00215 67.5-0.00328 12.6-0.00294 25.2-0.00312 37.8 6.46e-4 8.41 0.00224 16.8 8.53e-4 25.2-0.0035 4.79-0.00238 9.58-0.00318 14.4 4.06e-4 4.36 0.00323 8.72 0.00185 13.1-0.00318 1.57-0.00101 3.13-3.45e-4 4.7 0.00221 15.7 0.792 15.7 0.792 30.3-3.63 0.782-0.443 1.56-0.887 2.37-1.34 4.91-4.83 6.41-10.4 6.62-17.2-0.0156-2.3-0.0547-4.61-0.113-6.91-0.0176-1.24-0.0353-2.48-0.0535-3.75-0.0433-2.68-0.095-5.35-0.16-8.03-0.0901-3.72-0.147-7.44-0.197-11.2-0.0448-3.08-0.105-6.16-0.169-9.24-0.0298-1.49-0.0557-2.98-0.0776-4.47-0.0335-2.1-0.0859-4.2-0.143-6.3-0.0262-1.2-0.0524-2.41-0.0793-3.65-0.568-4.54-1.62-9.03-5.37-12-1.02-0.422-1.02-0.422-2.06-0.852-1.02-0.445-1.02-0.445-2.06-0.898-1.63-0.612-3.28-1.18-4.94-1.73v-3c-0.578-0.0619-1.16-0.124-1.75-0.188-3.14-1.13-4.34-3.15-6.25-5.81 0.66-0.33 1.32-0.66 2-1-0.99-0.33-1.98-0.66-3-1v-2c1.65-0.33 3.3-0.66 5-1-8.77-0.894-17.4-1.12-26.2-1.06-1.23 0.00451-2.47 0.00902-3.74 0.0137-3 0.0116-6.01 0.028-9.01 0.0488 3.95-3.95 10.6-3.05 15.9-3.07 3.03 0.00498 6.05 0.0305 9.08 0.0659 0.33-1.32 0.66-2.64 1-4h2v-2c-19.1-1.18-38.3-1.14-57.4-1.13-4.82 0.00256-9.63-7.33e-4 -14.5-0.00324-8.42-0.0036-16.8-0.00351-25.3-9.53e-4 -12.5 0.0038-25.1 0.00184-37.6-0.00121-22.4-0.00526-44.8-0.00481-67.2-0.00192-19.6 0.00252-39.2 0.00317-58.8 0.00198-1.3-7.64e-5 -2.6-1.53e-4 -3.94-2.31e-4 -5.29-3.11e-4 -10.6-6.3e-4 -15.9-9.6e-4 -14.8-9.11e-4 -29.5-0.00149-44.3-0.00179-0.673-1.36e-5 -1.35-2.73e-5 -2.04-4.14e-5 -21.4-4.09e-4 -42.8 7.16e-4 -64.3 0.00289-0.694 7.02e-5 -1.39 1.4e-4 -2.1 2.13e-4 -11.3 0.00114-22.6 0.00236-33.8 0.00359-44.7 0.00485-89.4 0.00463-134-2.31e-4 -11.3-0.00122-22.5-0.00243-33.8-0.00357-0.693-7.04e-5 -1.39-1.41e-4 -2.1-2.13e-4 -21.4-0.00216-42.8-0.00307-64.2-0.00264-1.01 2.04e-5 -1.01 2.04e-5 -2.04 4.12e-5 -15.4 3.27e-4 -30.9 0.00103-46.3 0.00199-5.28 3.21e-4 -10.6 6.34e-4 -15.8 9.43e-4 -1.95 1.19e-4 -1.95 1.19e-4 -3.94 2.4e-4 -19.6 0.00113-39.1-1.87e-4 -58.7-0.00272-22.3-0.00287-44.6-0.00212-66.8 0.00328-12.4 0.00292-24.9 0.00315-37.3-6.46e-4 -8.34-0.00226-16.7-8.1e-4 -25 0.0035-4.73 0.00235-9.47 0.00325-14.2-4.06e-4 -10.7-0.00747-21.5 0.0156-32.2 0.109-1.68 0.0146-3.36 0.028-5.04 0.0406-5.2 0.0402-10.4 0.103-15.6 0.198-1.62 0.0269-3.24 0.0474-4.87 0.0609-2.23 0.0203-4.46 0.0655-6.7 0.117-1.26 0.0201-2.53 0.0403-3.83 0.061-4.2 0.664-6.11 1.98-9.44 4.54-0.66-0.33-1.32-0.66-2-1 6.27-5.81 11.9-7.25 20.5-7.25z" fill="#67342D"/>
<path transform="translate(1301 309)" d="m0 0c4.43 1.88 6.74 4.13 8.82 8.59 1.8 5.91 1.51 12.2 1.56 18.4 0.0245 1.51 0.05 3.02 0.0767 4.53 0.0507 3.08 0.0884 6.17 0.118 9.25 0.0376 3.62 0.12 7.24 0.226 10.9 0.0899 3.23 0.145 6.46 0.205 9.68 0.0383 1.17 0.0767 2.33 0.116 3.53 0.0829 8.6-1.61 15.3-7.6 21.7-5.06 3.01-9.31 4.1-15.2 4.39-0.698 0.0356-1.4 0.0713-2.12 0.108-7.74 0.362-15.5 0.386-23.2 0.373-1.62 0.00105-3.25 0.00253-4.87 0.0044-4.43 0.00387-8.87 0.00158-13.3-0.00178-4.84-0.00255-9.67 7.28e-4 -14.5 0.00324-8.47 0.0036-16.9 0.00351-25.4 9.53e-4 -12.6-0.00379-25.2-0.00185-37.8 0.00121-22.5 0.00526-45 0.00481-67.5 0.00192-19.7-0.00252-39.4-0.00317-59-0.00198-1.96 1.15e-4 -1.96 1.15e-4 -3.96 2.31e-4 -5.3 3.11e-4 -10.6 6.3e-4 -15.9 9.6e-4 -14.8 9.11e-4 -29.6 0.00149-44.4 0.00179-0.674 1.36e-5 -1.35 2.73e-5 -2.04 4.14e-5 -21.5 4.09e-4 -43-7.17e-4 -64.5-0.00289-0.697-7.02e-5 -1.39-1.4e-4 -2.11-2.13e-4 -11.3-0.00114-22.6-0.00236-33.9-0.00359-44.9-0.00486-89.7-0.00463-135 2.31e-4 -11.3 0.00122-22.6 0.00243-33.9 0.00357-1.04 1.06e-4 -1.04 1.06e-4 -2.11 2.13e-4 -21.5 0.00216-42.9 0.00307-64.4 0.00264-0.674-1.36e-5 -1.35-2.72e-5 -2.04-4.12e-5 -15.5-3.27e-4 -30.9-0.00103-46.4-0.00199-5.29-3.21e-4 -10.6-6.34e-4 -15.9-9.43e-4 -1.95-1.19e-4 -1.95-1.19e-4 -3.95-2.4e-4 -19.7-0.00114-39.3 1.93e-4 -59 0.00272-22.4 0.00286-44.7 0.00215-67.1-0.00328-12.5-0.00294-25-0.00313-37.5 6.46e-4 -8.36 0.00224-16.7 8.46e-4 -25.1-0.0035-4.76-0.00238-9.52-0.00319-14.3 4.06e-4 -4.34 0.00325-8.68 0.00183-13-0.00318-1.55-1e-3 -3.11-3.57e-4 -4.66 0.00221-29.2 0.0448-29.2 0.0448-36.1-4.44-0.955-0.594-1.91-1.19-2.89-1.8-2.44-2.01-3.19-2.98-4.29-5.89-0.261-3.06-0.261-3.06-0.275-6.69-0.00511-0.664-0.0102-1.33-0.0155-2.01-0.0139-2.19-0.0129-4.38-0.0106-6.57-0.00389-1.53-0.00822-3.05-0.013-4.58-0.00746-3.2-0.00717-6.4-0.00191-9.6 0.00579-4.09-0.0111-8.18-0.0343-12.3-0.0148-3.15-0.0156-6.31-0.0125-9.46-5.12e-4 -1.51-0.00573-3.02-0.0158-4.52-0.0124-2.11-0.00555-4.23 0.00601-6.34-6.29e-4 -1.2-0.00126-2.4-0.00191-3.64 0.538-4.77 1.91-8.14 5.71-11.2 8.7-4.5 16.6-4.97 26.2-4.86 1.66-0.00414 3.31-0.0109 4.97-0.0201 4.54-0.0175 9.08 0.00224 13.6 0.0282 4.94 0.0216 9.89 0.00816 14.8-7.99e-4 8.66-0.0109 17.3 4.64e-4 26 0.0264 12.9 0.0385 25.8 0.0425 38.6 0.0394 21.7-0.00423 43.3 0.0193 65 0.0585 21.5 0.0387 42.9 0.0647 64.4 0.0735 0.667 2.79e-4 1.33 5.58e-4 2.02 8.46e-4 6.77 0.00282 13.5 0.0054 20.3 0.00781 14.5 0.00517 28.9 0.0123 43.4 0.0205 1.03 5.8e-4 1.03 5.8e-4 2.09 0.00117 33.5 0.019 67 0.0596 101 0.102 11.6 0.0148 23.3 0.0296 34.9 0.044 0.721 8.97e-4 1.44 0.00179 2.19 0.00272 33.5 0.0416 67.1 0.0703 101 0.0952 2.18 0.00162 4.35 0.00324 6.53 0.00487 30.7 0.0229 61.4 0.0438 92.1 0.064 9.01 0.00594 18 0.0119 27 0.018 0.682 4.56e-4 1.36 9.12e-4 2.07 0.00138 1.37 9.2e-4 2.75 0.00184 4.12 0.00276 4.1 0.00274 8.2 0.00545 12.3 0.00814 34.2 0.0224 68.5 0.0524 103 0.0932 1.95 0.00232 1.95 0.00232 3.94 0.0047 1.3 0.00155 2.59 0.00309 3.93 0.00468 16.3 0.0192 32.5 0.0351 48.8 0.0505 12.8 0.0123 25.6 0.0277 38.4 0.0472 8.54 0.0127 17.1 0.022 25.6 0.0283 4.87 0.00373 9.75 0.00913 14.6 0.0189 4.43 0.00888 8.85 0.0133 13.3 0.0139 1.6 0.00105 3.2 0.00382 4.8 0.00843 2.16 0.00598 4.31 0.00589 6.47 0.00417 1.2 0.0015 2.4 3e-3 3.63 0.00454 11.4-0.501 11.4-0.501 18.1 1.62zm-975 3.25c-0.99 1.49-0.99 1.49-2 3-0.784 0.309-1.57 0.619-2.38 0.938-3.1 1.25-4.49 2.49-6.62 5.06-0.831 2.76-0.831 2.76-1.08 5.83-0.127 1.13-0.254 2.26-0.385 3.42-0.114 1.17-0.228 2.35-0.346 3.56-0.133 1.16-0.267 2.33-0.404 3.53-0.725 6.82-0.71 12.4 0.73 19 0.472 2.54 0.733 5 0.917 7.57 0.0735 0.931 0.147 1.86 0.223 2.82 0.147 1.92 0.288 3.85 0.422 5.77 0.511 6.3 1.27 12.6 3.93 18.5 3.89 2.59 7.12 2.26 11.6 2.19 0.835-0.00645 1.67-0.0129 2.53-0.0195 8.3-0.1 16.6-0.575 24.8-1.17v-3h10v3c16.8 1.33 33.6 1.14 50.5 1.12 4.45-0.00437 8.9-0.00285 13.3-0.00209 7.78 5.31e-4 15.6-0.00262 23.3-0.00823 11.6-0.00832 23.1-0.0108 34.7-0.0121 19.5-0.00233 39-0.00917 58.4-0.0185 26.6-0.0126 53.2-0.0186 79.8-0.0229 12.4-0.00201 24.8-0.00433 37.2-0.00674 1.24-2.41e-4 2.48-4.82e-4 3.76-7.3e-4 29.5-0.00581 59.1-0.0148 88.6-0.0242 1.29-4.14e-4 2.58-8.27e-4 3.91-0.00125 19.6-0.0063 39.3-0.0128 58.9-0.0193 21-0.00693 41.9-0.0138 62.9-0.0205 1.29-4.15e-4 2.58-8.29e-4 3.91-0.00126 29.5-0.00945 59-0.018 88.4-0.0237 1.24-2.41e-4 2.48-4.82e-4 3.76-7.3e-4 12.4-0.00239 24.7-0.00461 37.1-0.00661 26.6-0.00431 53.1-0.0114 79.7-0.024 19.4-0.00919 38.7-0.0149 58.1-0.0171 11.5-0.00141 23-0.00566 34.5-0.0139 7.69-0.00527 15.4-0.00688 23.1-0.00557 4.38 6.39e-4 8.75-2.81e-4 13.1-0.0057 16-0.0189 31.9-0.0174 47.9 1.12 4.06 0.17 8.12 0.27 12.2 0.312 0.957 0.029 1.91 0.058 2.9 0.0879 6.22 0.0558 9.82-0.765 14.9-4.4 5.04-5.04 3.16-16.7 3.17-23.4 0.00333-1.27 0.00666-2.54 0.0101-3.85 0.00505-2.67 0.00784-5.34 0.00725-8.01-1.02e-4 -3.42 0.0136-6.84 0.0308-10.3 0.0138-3.27 0.0132-6.55 0.0144-9.82 0.00719-1.23 0.0144-2.46 0.0218-3.72-0.00308-1.14-0.00615-2.27-0.00932-3.44 0.00214-1.5 0.00214-1.5 0.00432-3.03-0.0731-2.76-0.0731-2.76-2.25-5.51h-2v-2h-2v-3c-0.815 1.56e-4 -1.63 3.12e-4 -2.47 4.73e-4 -88.7 0.0169-177 0.0326-266 0.0419-1.34 1.39e-4 -2.68 2.79e-4 -4.01 4.18e-4 -28.1 0.00292-56.2 0.00564-84.2 0.00812-14.1 0.00125-28.2 0.00253-42.3 0.00385-2.13 1.99e-4 -4.26 3.97e-4 -6.38 5.95e-4 -32.8 0.00306-65.6 0.00697-98.3 0.0133-0.705 1.37e-4 -1.41 2.74e-4 -2.14 4.15e-4 -11.4 0.00221-22.7 0.0045-34.1 0.00679-32.7 0.0066-65.5 0.0127-98.2 0.0153-0.673 5.35e-5 -1.35 1.07e-4 -2.04 1.62e-4 -14.1 0.00111-28.2 2e-3 -42.3 0.00261-6.6 2.88e-4 -13.2 6.14e-4 -19.8 9.62e-4 -1.3 6.74e-5 -2.6 1.35e-4 -3.94 2.04e-4 -21 0.00118-41.9 0.00583-62.9 0.0118-21.1 0.00588-42.1 0.00814-63.2 0.00667-12.5-7.63e-4 -25 0.00129-37.6 0.0073-8.35 0.00373-16.7 0.00388-25.1 0.00103-4.77-0.00152-9.53-0.00141-14.3 0.00305-4.33 0.00402-8.66 0.00351-13-7.43e-4 -1.56-7.19e-4 -3.13 2.67e-4 -4.69 0.0031-2.11 0.00358-4.22 0.00107-6.33-0.00304-1.17 1.56e-4 -2.34 3.12e-4 -3.55 4.73e-4 -2.54-0.106-4.55-0.427-6.97-1.12-7.55-0.826-15.2-1.12-22.8-1.25-1.04-0.032-1.04-0.032-2.09-0.0647-2.17-0.0503-2.17-0.0503-5.16 0.315z" fill="#F9FBFB"/>
<path transform="translate(1298,293)" d="m0 0v1c-1.46 0.363-2.92 0.715-4.38 1.06-0.812 0.197-1.62 0.394-2.46 0.598-2.16 0.34-2.16 0.34-4.16-0.66v2c1.32 0.33 2.64 0.66 4 1v3c0.33 0.99 0.66 1.98 1 3 2.02 0.733 2.02 0.733 4 1v2c-2.93-0.0488-2.93-0.0488-5.86-0.0977-2.1 0.0117-2.1 0.0117-3.86 0.596-3.01 0.662-5.84 0.624-8.93 0.621-0.671 7.81e-4 -1.34 0.00156-2.03 0.00237-2.26 0.0014-4.53-0.00438-6.79-0.0101-1.64-4.74e-4 -3.28-5.06e-4 -4.92-1.35e-4 -4.54-2.56e-4 -9.08-0.00679-13.6-0.0143-4.93-0.00702-9.85-0.0082-14.8-0.0101-8.64-0.0041-17.3-0.0119-25.9-0.022-12.9-0.015-25.7-0.0243-38.6-0.0321-20.3-0.0125-40.6-0.0283-60.9-0.0463-31.5-0.0279-63.1-0.046-94.6-0.0602-7.53-0.00341-15.1-0.00693-22.6-0.0105-1.38-6.47e-4 -2.76-0.00129-4.14-0.00194-2.77-0.0013-5.54-0.0026-8.3-0.00389-2.78-0.0013-5.56-0.0026-8.33-0.0039-32-0.015-64.1-0.0315-96.1-0.0496-2.17-0.00123-4.35-0.00245-6.52-0.00367-33.5-0.0188-66.9-0.0407-100-0.0696-1.08-9.34e-4 -1.08-9.34e-4 -2.18-0.00189-11.6-0.01-23.2-0.0202-34.8-0.0305-33.4-0.0295-66.9-0.0565-100-0.0702-0.687-2.81e-4 -1.37-5.63e-4 -2.08-8.52e-4 -14.4-0.00587-28.8-0.0109-43.2-0.0148-6.75-0.00184-13.5-0.00387-20.2-6e-3 -0.664-2.07e-4 -1.33-4.13e-4 -2.01-6.27e-4 -22.1-0.00697-44.1-0.0284-66.2-0.0562-21.5-0.0268-43-0.0394-64.5-0.0371-12.8 8.7e-4 -25.6-0.00953-38.3-0.0358-8.53-0.0165-17.1-0.0185-25.6-0.00868-4.87 0.00519-9.73 0.00395-14.6-0.0149-4.42-0.017-8.85-0.0156-13.3 5.35e-4 -1.59 0.00257-3.19-0.00161-4.78-0.0133-8.14-0.0559-14.6 0.0231-21.6 4.51-0.99 0.33-1.98 0.66-3 1v-3c2.52-1.75 2.52-1.75 5.81-3.56 1.62-0.899 1.62-0.899 3.27-1.82 0.963-0.535 1.93-1.07 2.92-1.62 0.99-0.66 1.98-1.32 3-2 2.79-0.93 4.77-1.19 7.67-1.32 1.34-0.0628 1.34-0.0628 2.71-0.127 0.929-0.0393 1.86-0.0786 2.81-0.119 0.94-0.0432 1.88-0.0864 2.85-0.131 2.32-0.106 4.64-0.208 6.96-0.307-4.41-4.41-8.79-4.39-14.8-4.62-0.793-0.0387-1.59-0.0773-2.4-0.117-1.95-0.0939-3.9-0.177-5.85-0.258v-1c90.6-0.113 181-0.224 272-0.328 1.35-0.00156 2.71-0.00313 4.06-0.00469 28.4-0.0328 56.9-0.0654 85.3-0.0978 14.3-0.0163 28.6-0.0326 42.9-0.0489 2.15-0.00246 4.31-0.00493 6.46-0.00739 33.2-0.0379 66.3-0.0767 99.5-0.118 0.713-8.87e-4 1.43-0.00177 2.16-0.00269 11.5-0.0143 23-0.0287 34.5-0.0431 33.1-0.0415 66.2-0.0824 99.3-0.12 0.681-7.69e-4 1.36-0.00154 2.06-0.00233 15-0.0169 29.9-0.0335 44.9-0.0498 6.02-0.00658 12-0.0132 18.1-0.0198 1.32-0.00145 2.63-0.0029 3.99-0.0044 21.2-0.0234 42.4-0.0504 63.6-0.0787 21.3-0.0284 42.6-0.053 63.9-0.0739 12.7-0.0125 25.3-0.0279 38-0.0473 8.46-0.0127 16.9-0.0217 25.4-0.0277 4.82-0.00352 9.64-0.00863 14.5-0.0183 4.39-0.00877 8.79-0.0127 13.2-0.0131 1.57-9.27e-4 3.14-0.00352 4.71-0.0081 11-0.0307 21.9 0.409 32.8 1.11z" fill="#733B31"/>
<path transform="translate(361 419)" d="m0 0c1.64-0.00165 3.28-0.00374 4.92-0.00622 4.49-0.00553 8.97-0.0049 13.5-0.00322 4.89 7.35e-4 9.77-0.0043 14.7-0.00858 9.68-0.00756 19.4-0.00977 29-0.0103 11.6-9.16e-4 23.2-0.00759 34.8-0.0143 28-0.016 56.1-0.022 84.1-0.0267 13.3-0.00234 26.5-0.00594 39.8-0.0097 44.7-0.0126 89.3-0.0234 134-0.0268 2.13-1.62e-4 4.27-3.28e-4 6.4-4.94e-4 4.28-3.34e-4 8.56-6.64e-4 12.8-9.95e-4 5.01-3.87e-4 10-7.77e-4 15-0.00117 1.43-1.12e-4 2.87-2.24e-4 4.3-3.34e-4 46.1-0.00355 92.1-0.0186 138-0.0419 33.1-0.0167 66.2-0.0322 99.3-0.0367 0.681-9.35e-5 1.36-1.87e-4 2.06-2.83e-4 14.9-0.00202 29.9-0.00318 44.8-0.00353 6.01-1.53e-4 12-4.07e-4 18-6.86e-4 1.32-5.58e-5 2.63-1.12e-4 3.99-1.69e-4 21.2-0.00115 42.4-0.0122 63.6-0.0267 21.3-0.0143 42.6-0.0176 63.8-0.00956 12.7 0.00447 25.3 5.59e-4 38-0.0152 8.44-0.00972 16.9-0.0086 25.3 0.00144 4.82 0.00541 9.63 0.00603 14.4-0.00651 4.38-0.0113 8.76-0.00884 13.1 0.00467 1.58 0.00244 3.15-1.62e-4 4.73-0.0084 14.2-0.0694 14.2-0.0694 20.9 2.67 2.52 1.02 5.08 1.37 7.76 1.71-1.49 0.99-1.49 0.99-3 2 0.99 0.66 1.98 1.32 3 2h-10v2c0.66 0.33 1.32 0.66 2 1h-975c0.33-3.3 0.66-6.6 1-10 10.2-0.882 20.3-1.14 30.6-1.13z" fill="#914E45"/>
<path transform="translate(404,359)" d="m0 0h40v5h-8v6h17v-6h-2c-0.495-2.48-0.495-2.48-1-5h48v3h-24v2c-0.99-0.33-1.98-0.66-3-1-2.14-0.095-4.29-0.13-6.44-0.125-1.13-0.00258-2.27-0.00516-3.43-0.00781-2.58 0.11-4.68 0.374-7.13 1.13v6h30v-2h3v2h17v-6c-0.99-0.495-0.99-0.495-2-1h4v-4h563v4h5v1h-518v6h520c0.33-0.66 0.66-1.32 1-2v2h6c0.33-2.31 0.66-4.62 1-7h6v-4h12v4h6v-4h3v4h7v-4h80v3h-10v2h-10v6c0.55-0.00222 1.1-0.00444 1.67-0.00673 5.74-0.0222 11.5-0.0372 17.2-0.0482 2.14-0.00502 4.28-0.0118 6.42-0.0205 3.08-0.0122 6.17-0.0178 9.25-0.0222 0.953-0.00516 1.91-0.0103 2.89-0.0156 4.63-3.88e-4 8.98 0.155 13.5 1.11v1h-80v4h-2v-4h-30v4h-5v-4h-6v4h-3v-4h-13c-0.33 1.32-0.66 2.64-1 4v-4h-19v4h-6v-4h-7v4h-495v-4h-30v4h-5v-4h-6v4h-7v-4h-6v4h-2v-4h-9v4h-2v-4h-129v-2c5.64-0.169 11.3-0.329 16.9-0.482 1.91-0.053 3.83-0.108 5.74-0.166 20.4-0.612 20.4-0.612 29.3 0.648-0.495-3.96-0.495-3.96-1-8h-8c-0.33 0.66-0.66 1.32-1 2v-2h-4v-3z" fill="#FAFCFC"/>
<path transform="translate(407 282)" d="m0 0c4.54 0.00257 9.07-7.37e-4 13.6-0.00324 7.92-0.00359 15.8-0.00352 23.8-9.53e-4 11.8 0.0038 23.6 0.00184 35.4-0.00121 21.1-0.00525 42.1-0.00482 63.2-0.00192 18.4 0.00252 36.8 0.00317 55.3 0.00198 1.22-7.64e-5 2.45-1.53e-4 3.71-2.31e-4 4.97-3.11e-4 9.94-6.3e-4 14.9-9.6e-4 46.6-0.00306 93.1-2.91e-4 140 0.0051 41.3 0.00475 82.7 0.00432 124-4.61e-4 46.5-0.00536 93-0.00748 139-0.00439 4.96 3.21e-4 9.91 6.34e-4 14.9 9.43e-4 1.22 7.91e-5 2.44 1.58e-4 3.7 2.4e-4 18.4 0.00114 36.8-1.91e-4 55.2-0.00272 20.9-0.00286 41.9-0.00214 62.8 0.00328 11.7 0.00293 23.4 0.00313 35.1-6.46e-4 7.83-0.00225 15.7-8.37e-4 23.5 0.0035 4.45 0.00237 8.91 0.00321 13.4-4.06e-4 46-0.0345 46-0.0345 52.5 2.13v2c-0.66 0.33-1.32 0.66-2 1-0.33 0.99-0.66 1.98-1 3-0.955 0.0606-1.91 0.121-2.89 0.184-1.29 0.0838-2.59 0.168-3.92 0.254-1.02 0.0655-1.02 0.0655-2.06 0.132-4.94 0.326-9.85 0.778-14.8 1.34-2.37 0.0859-2.37 0.0859-4.63-0.401-3.05-0.571-5.87-0.637-8.97-0.636-1.27-0.00199-2.53-0.00398-3.83-0.00603-1.4 0.00285-2.81 0.0058-4.21 0.00883-1.5-4.36e-4 -3-0.00131-4.49-0.00259-4.14-0.00224-8.27 0.00178-12.4 0.00678-4.49 0.00433-8.99 0.00285-13.5 0.00209-7.88-5.34e-4 -15.8 0.00265-23.6 0.00823-11.7 0.00828-23.4 0.0108-35.2 0.0121-19.7 0.00234-39.4 0.00919-59.1 0.0185-26.9 0.0126-53.9 0.0186-80.8 0.0229-12.5 0.00201-25.1 0.00433-37.6 0.00674-1.26 2.41e-4 -2.51 4.82e-4 -3.81 7.3e-4 -29.9 0.00581-59.8 0.0148-89.7 0.0242-1.96 6.2e-4 -1.96 6.2e-4 -3.97 0.00125-21.2 0.00672-42.5 0.0136-63.7 0.0206-19.9 0.00649-39.8 0.0129-59.6 0.0192-1.31 4.15e-4 -2.61 8.29e-4 -3.96 0.00126-29.8 0.00945-59.7 0.018-89.5 0.0237-1.25 2.41e-4 -2.51 4.82e-4 -3.8 7.3e-4 -12.5 0.00239-25 0.00461-37.6 0.00661-26.9 0.00432-53.8 0.0114-80.7 0.024-19.6 0.00919-39.2 0.0149-58.8 0.0171-11.7 0.00141-23.3 0.00566-35 0.0139-7.79 0.00527-15.6 0.00688-23.4 0.00557-4.43-6.4e-4 -8.87 2.86e-4 -13.3 0.0057-4.04 0.0049-8.09 0.00509-12.1 0.00169-1.44-4.17e-4 -2.89 8.05e-4 -4.33 0.00398-7.69 0.0159-15.4-0.128-23-0.507-0.733-0.0304-1.47-0.0608-2.22-0.0921-5.18-0.291-5.18-0.291-7.42-2.53 0.66-0.33 1.32-0.66 2-1-1.98-0.66-3.96-1.32-6-2 0.33-0.66 0.66-1.32 1-2 20-0.995 40-1.14 60-1.13z" fill="#914E45"/>
<path transform="translate(325 293)" d="m0 0c2.56 0.156 5.11 0.253 7.67 0.336 0.859 0.0317 1.72 0.0635 2.6 0.0962 1.66 0.0596 3.31 0.109 4.97 0.147 3.29 0.133 5.8 0.359 8.73 1.92 1.46 1.65 1.46 1.65 1.46 4.65-7.26 0.33-14.5 0.66-22 1-0.33 0.66-0.66 1.32-1 2-1.55 0.895-3.14 1.72-4.75 2.5-0.861 0.423-1.72 0.846-2.61 1.28-2.64 1.22-2.64 1.22-5.43 2.23-0.731 0.327-1.46 0.655-2.21 0.992-0.761 2.39-0.761 2.39-1 5-0.331 0.575-0.662 1.15-1 1.74-1.36 3.07-1.25 5.62-1.26 8.98-0.0035 0.667-0.00701 1.33-0.0106 2.02-0.00878 2.2-0.00298 4.4 0.00378 6.6-0.00135 1.53-0.00329 3.06-0.0058 4.6-0.00295 3.21 0.00133 6.42 0.0107 9.62 0.0114 4.11 0.00483 8.22-0.00714 12.3-0.00723 3.16-0.00492 6.32 2.56e-4 9.49 0.00133 1.52-2.99e-4 3.03-0.00496 4.55-0.00509 2.12 0.00267 4.24 0.0138 6.35 0.00159 1.2 0.00318 2.41 0.00482 3.65 0.246 2.97 0.626 4.61 2.25 7.07 13.9 11.2 37.2 7.13 53.9 7.07 3.4-0.0104 6.8-0.0148 10.2-0.0198 6.63-0.0109 13.3-0.0276 19.9-0.0488 0.33 0.99 0.66 1.98 1 3-14.4 0.99-14.4 0.99-29 2 6.6 0.33 13.2 0.66 20 1v2c0.749 7.12e-4 1.5 0.00142 2.27 0.00216 81.6 0.0776 163 0.156 245 0.242 1.22 0.00127 2.44 0.00254 3.69 0.00385 26.5 0.0276 52.9 0.0555 79.4 0.0836 13 0.0138 26 0.0275 38.9 0.0412 1.29 0.00136 2.58 0.00273 3.91 0.00413 41.9 0.0442 83.8 0.0852 126 0.125 43 0.0404 86.1 0.0841 129 0.132 6.08 0.00674 12.2 0.0134 18.2 0.0201 1.79 0.00197 1.79 0.00197 3.62 0.00399 19.3 0.0211 38.5 0.0388 57.8 0.0552 19.4 0.0166 38.7 0.0367 58.1 0.0605 11.5 0.0141 23 0.0253 34.5 0.0327 7.68 0.00518 15.4 0.0139 23 0.0256 4.38 0.00655 8.76 0.0115 13.1 0.0122 3.99 6.04e-4 7.97 0.00578 12 0.0146 1.43 0.00236 2.86 0.00307 4.29 0.00191 10.2-0.00704 20.2 0.175 30.1 2.61 4.23 0.853 8.52 1.3 12.8 1.75 4.46 0.502 8.54 1.54 12.8 2.79 5.07 0.478 10 0.0217 15-1v-1h5c-0.33 0.99-0.66 1.98-1 3-7.9 2.75-16.1 2.13-24.4 1.83-2.4-0.0838-4.8-0.145-7.2-0.205-1.54-0.0469-3.08-0.095-4.61-0.145-0.712-0.0178-1.42-0.0357-2.16-0.054-5.11-0.201-8.98-0.741-12.7-4.43-2.47-0.332-4.83-0.517-7.31-0.617-0.824-0.0376-1.65-0.0753-2.5-0.114-14.5-0.566-29-0.405-43.5-0.391-4.7 0.00346-9.4 0.00106-14.1-5.77e-4 -8.22-0.00207-16.4-4.45e-4 -24.7 0.00364-12.2 0.00605-24.5 0.00633-36.7 0.00546-20.6-0.00131-41.1 0.00202-61.7 0.00802-20.4 0.00592-40.7 0.00977-61.1 0.0109-1.27 6.87e-5 -2.53 1.37e-4 -3.84 2.08e-4 -6.44 3.38e-4 -12.9 6.4e-4 -19.3 9.27e-4 -45.6 0.0021-91.1 0.00883-137 0.0183-11 0.00229-22.1 0.00457-33.1 0.00677-0.684 1.37e-4 -1.37 2.74e-4 -2.07 4.15e-4 -31.8 0.00635-63.7 0.0101-95.5 0.0131-2.07 1.98e-4 -4.14 3.97e-4 -6.2 5.97e-4 -13.7 0.00132-27.4 0.00259-41.1 0.00384-27.9 0.00254-55.8 0.00536-83.7 0.00835-1.28 1.37e-4 -2.57 2.75e-4 -3.89 4.16e-4 -85.7 0.0092-171 0.025-257 0.0419-0.495 1.49-0.495 1.49-1 3h-3c0.33 0.66 0.66 1.32 1 2h-2v2h-20c0.495-1.49 0.495-1.49 1-3-1.18-0.0412-2.35-0.0825-3.56-0.125-6.04-0.739-9.26-4.55-13.2-8.81-3.36-5.84-3.48-11.9-3.46-18.4-0.00511-0.911-0.0102-1.82-0.0155-2.76-0.0138-2.99-0.0129-5.99-0.0106-8.98-0.00389-2.09-0.00822-4.18-0.013-6.26-0.00745-4.37-0.00718-8.73-0.00191-13.1 0.00581-5.6-0.0112-11.2-0.0343-16.8-0.0147-4.31-0.0156-8.61-0.0125-12.9-5.14e-4 -2.06-0.00576-4.13-0.0158-6.19-0.0123-2.88-0.0056-5.76 0.00601-8.65-0.00764-0.854-0.0153-1.71-0.0232-2.59 0.0399-4.47 0.198-7 3.4-10.4 0.714-2.65 0.714-2.65 1-5 11.5-4.02 23.6-2.98 35.6-2.15z" fill="#67342D"/>
<path transform="translate(1223,342)" d="m0 0c1.98 0.33 3.96 0.66 6 1v2c1.14-0.0838 2.29-0.168 3.46-0.254 1.49-0.103 2.98-0.206 4.47-0.309 0.755-0.0561 1.51-0.112 2.29-0.17 1.92-0.129 3.85-0.203 5.78-0.268 1 1 1 1 1.06 3.56-0.0206 0.804-0.0412 1.61-0.0625 2.44h-7v-3c-4.45 0.495-4.45 0.495-9 1v2h-18v-2h-8v2h-815v-2h-6v2h-7c-0.0427-1.67-0.0406-3.33 0-5 1.78-1.78 4.38-1.23 6.79-1.31 0.636-0.0204 1.27-0.0409 1.93-0.0619 2.23-0.0675 4.46-0.125 6.69-0.18 1.21-0.0314 1.21-0.0314 2.45-0.0635 29.1-0.725 58.3-0.533 87.4-0.529 9.28 0.00118 18.6-0.00353 27.8-0.00827 19.2-0.0096 38.4-0.0125 57.7-0.0131 14.9-4.62e-4 29.7-0.00253 44.6-0.0057 4.29-8.98e-4 8.59-0.00179 12.9-0.00267 1.07-2.21e-4 2.14-4.42e-4 3.24-6.7e-4 30-0.00614 60-0.0101 89.9-0.00966 1.13 1.56e-5 2.25 3.12e-5 3.42 4.72e-5 5.71 8.31e-5 11.4 1.82e-4 17.1 2.85e-4 1.7 2.99e-5 1.7 2.99e-5 3.44 6.04e-5 2.29 4.04e-5 4.59 8.22e-5 6.88 1.25e-4 35.7 6.13e-4 71.4-0.0069 107-0.0206 40.2-0.0154 80.4-0.024 121-0.023 4.29 7.46e-5 8.59 1.23e-4 12.9 1.54e-4 1.59 1.75e-5 1.59 1.75e-5 3.2 3.53e-5 16.9 3.06e-5 33.9-0.00633 50.8-0.015 17-0.00852 34.1-0.00944 51.1-0.00289 10.1 0.00367 20.2 0.00195 30.3-0.00794 6.77-0.00607 13.5-0.00463 20.3 0.00247 3.84 0.00382 7.67 0.00483 11.5-0.00346 22.1-0.0447 44 0.875 66 2.26 0.33-0.99 0.66-1.98 1-3z" fill="#FAFCFC"/>
<path transform="translate(291 280)" d="m0 0c0.729-0.00293 1.46-0.00586 2.21-0.00888 2.44-0.00738 4.89-5.29e-4 7.33 0.00625 1.78-0.00239 3.56-0.00566 5.33-0.00972 4.9-0.00864 9.81-0.00478 14.7 0.00106 5.33 0.00416 10.7-0.00323 16-0.00915 9.34-0.00878 18.7-0.0101 28-0.0065 13.9 0.0053 27.8-7.79e-4 41.7-0.00908 25.5-0.0148 51.1-0.0171 76.6-0.0147 3.62 3.38e-4 7.24 6.61e-4 10.9 9.66e-4 1.08 9.16e-5 1.08 9.16e-5 2.18 1.85e-4 15.9 0.00127 31.8-0.00133 47.8-0.00471 3.63-7.71e-4 7.27-0.00152 10.9-0.00227 1.46-3.02e-4 2.92-6.04e-4 4.38-9.06e-4 0.723-1.5e-4 1.45-2.99e-4 2.19-4.54e-4 1.46-3.04e-4 2.93-6.08e-4 4.39-9.14e-4 41.5-0.00867 83-0.0133 125-0.00905 0.769 7.81e-5 1.54 1.56e-4 2.33 2.37e-4 8.57 8.73e-4 17.1 0.0018 25.7 0.00275 1.16 1.28e-4 1.16 1.28e-4 2.35 2.59e-4 6.43 7.11e-4 6.43 7.11e-4 9.39 0.00104 49.5 0.00554 99-0.00201 149-0.0208 12.5-0.00472 25-0.0094 37.4-0.0138 0.768-2.73e-4 1.54-5.47e-4 2.33-8.28e-4 23.7-0.00837 47.3-0.0131 71-0.0139 1.11-3.95e-5 1.11-3.95e-5 2.25-7.99e-5 16.3-5.41e-4 32.6-1.68e-4 48.9 0.00104 5.84 4.26e-4 11.7 7.91e-4 17.5 0.00113 1.45 8.53e-5 2.9 1.74e-4 4.36 2.67e-4 23.1 0.00145 46.3-0.00568 69.4-0.017 24-0.0116 47.9-0.0122 71.9-1.57e-4 13.8 0.00665 27.6 0.00495 41.4-0.00859 9.22-0.00821 18.4-0.00559 27.7 0.00598 5.26 0.00629 10.5 0.00777 15.8-0.00386 4.78-0.0105 9.56-0.00724 14.3 0.0071 1.72 0.00274 3.44 4.12e-4 5.17-0.00751 2.34-0.01 4.67-0.00153 7 0.0115 1.29-2.05e-5 2.59-4.09e-5 3.92-6.2e-5 7.44 0.749 13.8 3.66 18.7 9.37 0.938 2.87 0.938 2.87 1 5 0.66-0.33 1.32-0.66 2-1 0.855 5.38 1.29 10.7 1.55 16.1 0.042 0.871 0.0841 1.74 0.127 2.64 0.434 9.7 0.485 19.4 0.489 29.1 0.00323 1.92 0.00659 3.85 0.0101 5.77 0.00592 3.99 0.00785 7.97 0.00725 12-1.02e-4 5.09 0.0137 10.2 0.0308 15.3 0.0111 3.95 0.0131 7.9 0.0126 11.9 0.00117 1.88 0.00555 3.75 0.0133 5.63 0.00986 2.62 0.0069 5.24 8.95e-4 7.86 0.00562 0.759 0.0112 1.52 0.017 2.3-0.0492 8.49-1.26 16.1-7.26 22.5-6.94 5.46-13.2 6.31-21.8 6.19-0.862-6.45e-4 -1.72-0.00129-2.61-0.00195-6.36-0.0448-6.36-0.0448-8.64-1.19v-2c2.31-0.33 4.62-0.66 7-1-0.33-0.66-0.66-1.32-1-2 0.33-0.33 0.66-0.66 1-1-0.615-0.133-1.23-0.266-1.86-0.402-0.808-0.177-1.62-0.353-2.45-0.535-0.801-0.174-1.6-0.348-2.43-0.527-2.26-0.535-2.26-0.535-5.26-1.54v-2c5.61-0.66 11.2-1.32 17-2 0.33-0.99 0.66-1.98 1-3 1.67-0.667 3.33-1.33 5-2 0.33-0.99 0.66-1.98 1-3 1.49-0.99 1.49-0.99 3-2 1.44-4 1.15-8.19 1.15-12.4 0.00336-0.844 0.00672-1.69 0.0102-2.56 0.0095-2.79 0.0115-5.58 0.0125-8.38 0.00321-1.95 0.00658-3.89 0.0101-5.84 0.00599-4.08 0.00784-8.16 0.00725-12.2-1.01e-4 -5.21 0.0135-10.4 0.0308-15.6 0.0112-4.02 0.0131-8.04 0.0126-12.1 0.00118-1.92 0.00557-3.84 0.0133-5.76 0.00987-2.7 0.00689-5.39 8.95e-4 -8.09 0.00843-1.18 0.00843-1.18 0.017-2.38-0.0415-7.39-0.892-14.5-5.26-20.7 0.33-0.33 0.66-0.66 1-1-0.99-0.33-1.98-0.66-3-1v-3c-4.24-0.787-8.33-1.18-12.6-1.32-1.29-0.042-2.58-0.084-3.9-0.127-1.38-0.04-2.77-0.0796-4.15-0.119-0.699-0.0212-1.4-0.0424-2.12-0.0642-14.1-0.423-28.1-0.487-42.2-0.373 3.95-3.95 10.6-3.05 15.9-3.07 3.03 0.00498 6.05 0.0305 9.08 0.0659 0.33-1.32 0.66-2.64 1-4h2v-2c-19.1-1.18-38.3-1.14-57.4-1.13-4.82 0.00256-9.63-7.33e-4 -14.5-0.00324-8.42-0.0036-16.8-0.00351-25.3-9.53e-4 -12.5 0.0038-25.1 0.00184-37.6-0.00121-22.4-0.00526-44.8-0.00481-67.2-0.00192-19.6 0.00252-39.2 0.00317-58.8 0.00198-1.3-7.64e-5 -2.6-1.53e-4 -3.94-2.31e-4 -5.29-3.11e-4 -10.6-6.3e-4 -15.9-9.6e-4 -14.8-9.11e-4 -29.5-0.00149-44.3-0.00179-0.673-1.36e-5 -1.35-2.73e-5 -2.04-4.14e-5 -21.4-4.09e-4 -42.8 7.16e-4 -64.3 0.00289-0.694 7.02e-5 -1.39 1.4e-4 -2.1 2.13e-4 -11.3 0.00114-22.6 0.00236-33.8 0.00359-44.7 0.00485-89.4 0.00463-134-2.31e-4 -11.3-0.00122-22.5-0.00243-33.8-0.00357-0.693-7.04e-5 -1.39-1.41e-4 -2.1-2.13e-4 -21.4-0.00216-42.8-0.00307-64.2-0.00264-1.01 2.04e-5 -1.01 2.04e-5 -2.04 4.12e-5 -15.4 3.27e-4 -30.9 0.00103-46.3 0.00199-5.28 3.21e-4 -10.6 6.34e-4 -15.8 9.43e-4 -1.95 1.19e-4 -1.95 1.19e-4 -3.94 2.4e-4 -19.6 0.00113-39.1-1.87e-4 -58.7-0.00272-22.3-0.00287-44.6-0.00212-66.8 0.00328-12.4 0.00292-24.9 0.00315-37.3-6.46e-4 -8.34-0.00226-16.7-8.1e-4 -25 0.0035-4.73 0.00235-9.47 0.00325-14.2-4.06e-4 -10.7-0.00747-21.5 0.0156-32.2 0.109-1.68 0.0146-3.36 0.028-5.04 0.0406-5.2 0.0402-10.4 0.103-15.6 0.198-1.62 0.0269-3.24 0.0474-4.87 0.0609-2.23 0.0203-4.46 0.0655-6.7 0.117-1.26 0.0201-2.53 0.0403-3.83 0.061-4.2 0.664-6.11 1.98-9.44 4.54-0.66-0.33-1.32-0.66-2-1 6.27-5.81 11.9-7.25 20.5-7.25z" fill="#88483C"/>
<path transform="translate(373,324)" d="m0 0c260 0.33 519 0.66 787 1v5h-795v-2h8v-4z" fill="#FCFDFF"/>
<path transform="translate(373 407)" d="m0 0c1.27-0.00107 2.55-0.00214 3.86-0.00324 1.42 0.0039 2.84 0.00789 4.26 0.012 1.51 6.65e-4 3.02 8.89e-4 4.53 7.12e-4 4.18 8.01e-4 8.35 0.0079 12.5 0.016 4.53 0.00768 9.07 0.00955 13.6 0.0122 7.95 0.00538 15.9 0.0145 23.9 0.0261 11.8 0.0172 23.7 0.0287 35.5 0.039 21.1 0.0186 42.2 0.043 63.4 0.0699 18.5 0.0235 37 0.0451 55.5 0.0648 1.84 0.00196 1.84 0.00196 3.71 0.00397 4.97 0.00532 9.95 0.0106 14.9 0.0159 46 0.0491 92 0.104 138 0.161 42.2 0.0526 84.3 0.1 126 0.143 46.6 0.0474 93.2 0.098 140 0.154 4.97 0.00594 9.93 0.0119 14.9 0.0178 1.22 0.00146 2.45 0.00292 3.71 0.00443 18.5 0.022 36.9 0.0416 55.4 0.0601 21 0.021 42 0.0455 63 0.0746 11.8 0.0162 23.5 0.0297 35.3 0.0393 7.85 0.00669 15.7 0.017 23.6 0.0302 4.48 0.00743 8.95 0.0133 13.4 0.0148 4.08 0.00142 8.15 0.00741 12.2 0.017 1.46 0.00265 2.93 0.00366 4.39 0.0028 10.3-0.00482 20.3 0.157 30.4 2.61 4.23 0.853 8.52 1.3 12.8 1.75 4.46 0.502 8.54 1.54 12.8 2.79 5.07 0.478 10 0.0217 15-1v-1h5c-0.33 0.99-0.66 1.98-1 3-7.9 2.75-16.1 2.13-24.4 1.83-2.4-0.0838-4.8-0.145-7.2-0.205-1.54-0.0469-3.08-0.095-4.61-0.145-0.712-0.0178-1.42-0.0357-2.16-0.054-5.11-0.201-8.98-0.741-12.7-4.43-2.47-0.332-4.83-0.517-7.32-0.617-0.824-0.0376-1.65-0.0753-2.5-0.114-14.4-0.565-28.9-0.405-43.4-0.391-4.68 0.00346-9.37 0.00106-14.1-5.77e-4 -8.2-0.00206-16.4-4.45e-4 -24.6 0.00364-12.2 0.00605-24.4 0.00633-36.6 0.00546-20.5-0.00131-41 0.00202-61.5 0.00802-20.3 0.00592-40.6 0.00977-60.9 0.0109-1.26 6.87e-5 -2.53 1.37e-4 -3.83 2.08e-4 -6.41 3.38e-4 -12.8 6.4e-4 -19.2 9.27e-4 -45.4 0.0021-90.8 0.00883-136 0.0183-11 0.00229-22 0.00457-33 0.00677-0.682 1.37e-4 -1.36 2.74e-4 -2.07 4.15e-4 -31.7 0.00635-63.5 0.0101-95.2 0.0131-2.06 1.98e-4 -4.12 3.97e-4 -6.18 5.97e-4 -13.7 0.00132-27.3 0.00259-41 0.00384-27.8 0.00254-55.6 0.00536-83.5 0.00835-1.92 2.06e-4 -1.92 2.06e-4 -3.88 4.16e-4 -85.4 0.0092-171 0.025-256 0.0419-0.33-0.66-0.66-1.32-1-2 0.948-0.0553 1.9-0.111 2.87-0.168 3.53-0.208 7.05-0.419 10.6-0.632 1.52-0.0915 3.05-0.182 4.57-0.271 2.19-0.128 4.39-0.261 6.58-0.395 1.02-0.0579 1.02-0.0579 2.06-0.117 3.62-0.21 3.62-0.21 7.16-0.929 2.82-0.634 5.44-0.611 8.33-0.608z" fill="#733B31"/>
<path transform="translate(393 304)" d="m0 0c4.68 0.00607 9.36 3.14e-4 14-0.00382 8.17-0.00564 16.3-0.00398 24.5 0.00269 12.1 0.00988 24.3 0.00817 36.4 0.00425 20.4-0.00625 40.9-0.00313 61.3 0.00559 20.2 0.00863 40.5 0.0135 60.7 0.0133 1.89-1.15e-5 1.89-1.15e-5 3.82-2.32e-5 5.12-4.09e-5 10.2-1.07e-4 15.4-2.06e-4 35.7-6.73e-4 71.4 0.00206 107 0.0128 0.672 2.03e-4 1.34 4.06e-4 2.04 6.15e-4 10.9 0.00331 21.8 0.0068 32.7 0.0103 43.3 0.0139 86.6 0.0205 130 0.0198 1.37-2.04e-5 2.74-4.06e-5 4.11-6.06e-5 2.74-4.02e-5 5.47-8.1e-5 8.21-1.22e-4 6.13-9.14e-5 12.3-1.76e-4 18.4-2.47e-4 1.36-1.58e-5 2.72-3.22e-5 4.08-4.93e-5 36.3-4.45e-4 72.6 0.00403 109 0.0104 1.27 2.2e-4 2.54 4.41e-4 3.84 6.67e-4 5.1 8.88e-4 10.2 0.00178 15.3 0.00269 17.7 0.00316 35.4 0.00467 53.2 0.00511 22.8 5.97e-4 45.7 0.0046 68.5 0.0144 12.1 0.00511 24.1 0.00753 36.2 6e-3 8.06-7.35e-4 16.1 0.00218 24.2 0.00804 4.59 0.00324 9.18 0.00494 13.8 0.00224 4.18-0.00243 8.37-1.93e-4 12.6 0.00562 1.5 0.00129 2.99 9.49e-4 4.49-0.00132 7.64-0.0106 15.3 0.116 22.9 0.515 0.693 0.0304 1.39 0.0607 2.1 0.092 1.66 0.0994 3.31 0.303 4.95 0.525 0.33 0.66 0.66 1.32 1 2-3.57 1.11-6.89 1.12-10.6 1.12-1 0.00192-1 0.00192-2.03 0.00387-2.25 0.00308-4.51-0.00101-6.76-0.00502-1.63 7.39e-4 -3.27 0.00192-4.9 0.0035-4.52 0.00308-9.03-1.16e-4 -13.5-0.00428-4.9-0.00342-9.81-0.00107-14.7 5.77e-4 -8.6 0.00208-17.2 4.23e-4 -25.8-0.00364-12.8-0.00602-25.6-0.00634-38.4-0.00546-21.5 0.00132-43-0.00203-64.5-0.00802-21.3-0.00591-42.6-0.00977-63.9-0.0109-0.661-3.44e-5 -1.32-6.88e-5 -2-1.04e-4 -6.04-3.13e-4 -12.1-6.01e-4 -18.1-8.58e-4 -15-6.39e-4 -30-0.0016-45.1-0.00278-1.03-8e-5 -1.03-8e-5 -2.07-1.62e-4 -33.3-0.00262-66.6-0.00893-99.8-0.0155-11.6-0.00229-23.1-0.00457-34.7-0.00677-0.716-1.37e-4 -1.43-2.74e-4 -2.17-4.15e-4 -33.3-0.00634-66.6-0.0101-99.9-0.0131-2.16-1.98e-4 -4.32-3.97e-4 -6.48-5.97e-4 -14.3-0.00132-28.6-0.00259-43-0.00384-28.5-0.00248-57-0.00522-85.5-0.00814-1.36-1.39e-4 -2.71-2.78e-4 -4.07-4.17e-4 -90.3-0.00924-181-0.0251-271-0.0421v-2c21.5-1.88 42.8-2.29 64.3-2.25z" fill="#9B5E57"/>
<path transform="translate(423 301)" d="m0 0c4.59-1.74e-4 9.17-0.00612 13.8-0.0112 9.04-0.00921 18.1-0.0132 27.1-0.0155 10.8-0.00299 21.7-0.0117 32.5-0.0204 26.2-0.0207 52.4-0.0313 78.5-0.0401 12.4-0.00422 24.8-0.00944 37.2-0.0147 42.5-0.0179 84.9-0.0329 127-0.0403 2.66-4.75e-4 5.32-9.51e-4 7.97-0.00143 1.32-2.36e-4 2.64-4.73e-4 3.99-7.16e-4 6.01-0.00108 12-0.00217 18-0.00327 1.34-2.45e-4 2.68-4.89e-4 4.01-7.32e-4 43-0.0078 86.1-0.0302 129-0.0627 46.2-0.0348 92.5-0.0555 139-0.0588 5-4.18e-4 10-8.97e-4 15-0.00142 1.23-1.23e-4 2.46-2.46e-4 3.73-3.73e-4 19.8-0.00233 39.6-0.018 59.4-0.0385 19.9-0.0202 39.8-0.0257 59.6-0.0162 11.8 0.00522 23.6-7.04e-4 35.4-0.0225 7.89-0.0135 15.8-0.0125 23.7 4.02e-4 4.49 0.00692 8.99 0.0075 13.5-0.00956 4.09-0.0154 8.18-0.0123 12.3 0.00541 1.47 0.00314 2.94-3.77e-4 4.4-0.0115 8.58-0.0607 16.4 0.39 24.1 4.51 0.33 0.66 0.66 1.32 1 2-0.762-0.154-1.52-0.307-2.31-0.465-4.91-0.711-9.78-0.906-14.7-1.09-1.13-0.0421-2.27-0.0842-3.43-0.128-15.4-0.512-30.7-0.462-46.1-0.453-4.61 0.00166-9.23-0.00253-13.8-0.00591-8.06-0.00512-16.1-0.00658-24.2-0.00554-12 0.00153-24-0.00266-36-0.00787-22.7-0.00964-45.3-0.0125-68-0.0131-17.5-4.6e-4 -35-0.00252-52.5-0.0057-5.05-8.98e-4 -10.1-0.00179-15.1-0.00267-1.88-3.32e-4 -1.88-3.32e-4 -3.8-6.7e-4 -35.3-0.00615-70.6-0.0101-106-0.00966-1.34 1.58e-5 -2.68 3.15e-5 -4.03 4.72e-5 -6.06 7.34e-5 -12.1 1.62e-4 -18.2 2.54e-4 -2.7 4.11e-5 -5.4 8.13e-5 -8.1 1.21e-4 -1.35 2.04e-5 -2.7 4.14e-5 -4.06 6.31e-5 -42.7 6.8e-4 -85.5-0.00664-128-0.0205-10.8-0.0035-21.5-0.00697-32.3-0.0103-0.663-2.03e-4 -1.33-4.06e-4 -2.01-6.15e-4 -35.9-0.0109-71.8-0.0129-108-0.0122-5.05 7.46e-5 -10.1 1.23e-4 -15.1 1.54e-4 -1.24 1.17e-5 -2.49 2.33e-5 -3.77 3.53e-5 -20 3.07e-5 -39.9-0.00634-59.9-0.015-20.1-0.00849-40.2-0.00945-60.2-0.00289-11.9 0.00368-23.8 0.0019-35.7-0.00794-7.97-0.00603-15.9-0.00467-23.9 0.00247-4.53 0.00385-9.06 0.00474-13.6-0.00346-23.6-0.0398-46.9 0.508-70.3 3.26 9.41-9.41 35.2-6.23 47.4-6.55 0.775-0.0211 1.55-0.0422 2.35-0.064 17.6-0.471 35.2-0.537 52.8-0.534z" fill="#8B4A3F"/>
<path transform="translate(1302,396)" d="m0 0c-4.12 2.94-7.25 3.46-12.3 3.68-0.701 0.0331-1.4 0.0662-2.12 0.1-7.76 0.334-15.5 0.359-23.3 0.346-1.62 0.00105-3.25 0.00253-4.87 0.0044-4.43 0.00387-8.87 0.00158-13.3-0.00178-4.84-0.00255-9.67 7.28e-4 -14.5 0.00324-8.47 0.0036-16.9 0.00351-25.4 9.53e-4 -12.6-0.00379-25.2-0.00185-37.8 0.00121-22.5 0.00526-45 0.00481-67.5 0.00192-19.7-0.00252-39.4-0.00317-59-0.00198-1.96 1.15e-4 -1.96 1.15e-4 -3.96 2.31e-4 -5.3 3.11e-4 -10.6 6.3e-4 -15.9 9.6e-4 -14.8 9.11e-4 -29.6 0.00149-44.4 0.00179-0.674 1.36e-5 -1.35 2.73e-5 -2.04 4.14e-5 -21.5 4.09e-4 -43-7.17e-4 -64.5-0.00289-0.697-7.02e-5 -1.39-1.4e-4 -2.11-2.13e-4 -11.3-0.00114-22.6-0.00236-33.9-0.00359-44.9-0.00486-89.7-0.00463-135 2.31e-4 -11.3 0.00122-22.6 0.00243-33.9 0.00357-1.04 1.06e-4 -1.04 1.06e-4 -2.11 2.13e-4 -21.5 0.00216-42.9 0.00307-64.4 0.00264-0.674-1.36e-5 -1.35-2.72e-5 -2.04-4.12e-5 -15.5-3.27e-4 -30.9-0.00103-46.4-0.00199-5.29-3.21e-4 -10.6-6.34e-4 -15.9-9.43e-4 -1.95-1.19e-4 -1.95-1.19e-4 -3.95-2.4e-4 -19.7-0.00114-39.3 1.93e-4 -59 0.00272-22.4 0.00286-44.7 0.00215-67.1-0.00328-12.5-0.00294-25-0.00313-37.5 6.46e-4 -8.36 0.00224-16.7 8.46e-4 -25.1-0.0035-4.76-0.00238-9.52-0.00319-14.3 4.06e-4 -4.34 0.00325-8.68 0.00183-13-0.00318-1.55-1e-3 -3.11-3.57e-4 -4.66 0.00221-7.54 0.0116-15.1-0.0739-22.6-0.45-1.81-0.0853-1.81-0.0853-3.66-0.172-3.13-0.531-4.13-1-5.99-3.51 0.817 0.00102 1.63 0.00205 2.47 0.0031 88.9 0.112 178 0.222 267 0.325 1.34 0.00156 2.69 0.00313 4.03 0.00469 28.2 0.0328 56.4 0.0654 84.6 0.0978 14.2 0.0163 28.3 0.0326 42.5 0.0489 2.14 0.00246 4.27 0.00493 6.41 0.00739 32.9 0.0379 65.7 0.0767 98.6 0.118 1.06 0.00133 1.06 0.00133 2.14 0.00269 11.4 0.0143 22.8 0.0287 34.1 0.0431 32.8 0.0415 65.6 0.0824 98.4 0.12 0.676 7.69e-4 1.35 0.00154 2.05 0.00233 14.2 0.0161 28.3 0.032 42.5 0.0476 6.64 0.00731 13.3 0.0147 19.9 0.022 1.31 0.00145 2.61 0.0029 3.96 0.0044 21 0.0234 42 0.0504 63 0.0787 21.1 0.0284 42.3 0.0531 63.4 0.0739 12.5 0.0125 25.1 0.0278 37.6 0.0473 8.4 0.0128 16.8 0.0217 25.2 0.0277 4.77 0.0035 9.54 0.00854 14.3 0.0183 17.1 0.0338 34.1 0.0149 51.1-0.536 1.24-0.0389 2.48-0.0778 3.75-0.118 5.95-0.165 5.95-0.165 11.8-1.02 2.27-0.418 2.27-0.418 4.27 0.582z" fill="#EFEFEF"/>
<path transform="translate(359,307)" d="m0 0h884c0.33 0.99 0.66 1.98 1 3h-886c0.33-0.99 0.66-1.98 1-3z" fill="#EFEFEF"/>
<path transform="translate(291 280)" d="m0 0c0.729-0.00293 1.46-0.00586 2.21-0.00888 2.44-0.00738 4.89-5.29e-4 7.33 0.00625 1.78-0.00239 3.56-0.00566 5.33-0.00972 4.9-0.00864 9.81-0.00478 14.7 0.00106 5.33 0.00416 10.7-0.00323 16-0.00915 9.34-0.00878 18.7-0.0101 28-0.0065 13.9 0.0053 27.8-7.79e-4 41.7-0.00908 25.5-0.0148 51.1-0.0171 76.6-0.0147 3.62 3.38e-4 7.24 6.61e-4 10.9 9.66e-4 1.08 9.16e-5 1.08 9.16e-5 2.18 1.85e-4 15.9 0.00127 31.8-0.00133 47.8-0.00471 3.63-7.71e-4 7.27-0.00152 10.9-0.00227 1.46-3.02e-4 2.92-6.04e-4 4.38-9.06e-4 0.723-1.5e-4 1.45-2.99e-4 2.19-4.54e-4 1.46-3.04e-4 2.93-6.08e-4 4.39-9.14e-4 41.5-0.00867 83-0.0133 125-0.00905 0.769 7.81e-5 1.54 1.56e-4 2.33 2.37e-4 8.57 8.73e-4 17.1 0.0018 25.7 0.00275 1.16 1.28e-4 1.16 1.28e-4 2.35 2.59e-4 6.43 7.11e-4 6.43 7.11e-4 9.39 0.00104 49.5 0.00554 99-0.00201 149-0.0208 12.5-0.00472 25-0.0094 37.4-0.0138 0.768-2.73e-4 1.54-5.47e-4 2.33-8.28e-4 23.7-0.00837 47.3-0.0131 71-0.0139 1.11-3.95e-5 1.11-3.95e-5 2.25-7.99e-5 16.3-5.41e-4 32.6-1.68e-4 48.9 0.00104 5.84 4.26e-4 11.7 7.91e-4 17.5 0.00113 1.45 8.53e-5 2.9 1.74e-4 4.36 2.67e-4 23.1 0.00145 46.3-0.00568 69.4-0.017 24-0.0116 47.9-0.0122 71.9-1.57e-4 13.8 0.00665 27.6 0.00495 41.4-0.00859 9.22-0.00821 18.4-0.00559 27.7 0.00598 5.26 0.00629 10.5 0.00777 15.8-0.00386 4.78-0.0105 9.56-0.00724 14.3 0.0071 1.72 0.00274 3.44 4.12e-4 5.17-0.00751 2.34-0.01 4.67-0.00153 7 0.0115 1.29-2.05e-5 2.59-4.09e-5 3.92-6.2e-5 5.95 0.598 11.3 2.4 15.7 6.56 0.578 0.53 1.16 1.06 1.75 1.61 0.412 0.398 0.825 0.797 1.25 1.21-0.33 0.66-0.66 1.32-1 2-0.401-0.41-0.802-0.82-1.21-1.24-0.568-0.539-1.14-1.08-1.72-1.63-0.545-0.534-1.09-1.07-1.65-1.62-8.13-5.09-18.9-3.79-28.1-3.76-1.71-0.00178-3.43-0.00444-5.14-0.0079-4.72-0.00696-9.43-0.00146-14.1 0.00606-5.13 0.00597-10.3 3.41e-4 -15.4-0.00382-8.99-0.00569-18-0.00393-27 0.00269-13.4 0.00981-26.7 0.00819-40.1 0.00425-22.5-0.00628-45-0.00312-67.5 0.00559-22.3 0.00862-44.6 0.0135-66.9 0.0133-1.4-7.92e-6 -2.8-1.56e-5 -4.2-2.32e-5 -5.63-3.74e-5 -11.3-1.04e-4 -16.9-2.06e-4 -15.7-2.78e-4 -31.5 1.11e-4 -47.2 9.89e-4 -1.08 5.95e-5 -1.08 5.95e-5 -2.17 1.2e-4 -22.9 0.00131-45.7 0.00548-68.6 0.0117-1.11 3.04e-4 -1.11 3.04e-4 -2.25 6.15e-4 -12 0.00331-24.1 0.0068-36.1 0.0103-47.7 0.0139-95.4 0.0205-143 0.0198-1.5-2.04e-5 -3.01-4.06e-5 -4.51-6.06e-5 -3.01-4.02e-5 -6.01-8.1e-5 -9.02-1.22e-4 -6.74-9.14e-5 -13.5-1.76e-4 -20.2-2.47e-4 -1.49-1.58e-5 -2.99-3.22e-5 -4.48-4.93e-5 -40-4.46e-4 -80 0.00403-120 0.0104-1.05 1.65e-4 -1.05 1.65e-4 -2.12 3.34e-4 -9.49 0.0015-9.49 0.0015-19 0.00302-15.3 0.00249-30.7 0.00444-46 0.00481-0.689 1.75e-5 -1.38 3.51e-5 -2.09 5.31e-5 -2.78 6.92e-5 -5.55 1.34e-4 -8.33 1.97e-4 -25.9 5.88e-4 -51.7 0.00441-77.6 0.0145-13.3 0.00509-26.6 0.00753-39.9 6e-3 -8.9-7.41e-4 -17.8 0.00222-26.7 0.00804-5.06 0.00321-10.1 0.00498-15.2 0.00224-11.4-0.00535-22.8 0.0181-34.1 0.115-1.73 0.0146-3.45 0.0283-5.18 0.041-5.23 0.0401-10.5 0.103-15.7 0.198-1.62 0.0269-3.23 0.0473-4.85 0.0608-2.21 0.0203-4.43 0.0654-6.64 0.117-1.25 0.0201-2.5 0.0402-3.78 0.0609-4.17 0.667-6.09 2-9.4 4.54-0.66-0.33-1.32-0.66-2-1 6.27-5.81 11.9-7.25 20.5-7.25z" fill="#000102"/>
<path transform="translate(1126 362)" d="m0 0c1.13 0.00645 2.26 0.0129 3.42 0.0195 2.83 0.168 2.83 0.168 4.83 1.17 2.71 0.232 5.41 0.419 8.12 0.562 1.13 0.0648 1.13 0.0648 2.29 0.131 1.86 0.106 3.73 0.207 5.59 0.307v-2h10v2h3v-2h10c1 2 1 2 1 8h-15v-2h-8v2h-38v-6c4.41-1.69 8.04-2.25 12.8-2.19z" fill="#FBFFFF"/>
<path transform="translate(1175,325)" d="m0 0h70v5h-49v-3h-3v3h-7v-3h-5v3h-6v-5z" fill="#FCFDFF"/>
<path transform="translate(299,411)" d="m0 0h32c-0.66 0.33-1.32 0.66-2 1-0.33 0.99-0.66 1.98-1 3h-3c0.33 0.66 0.66 1.32 1 2h-2v2h-20c0.33-0.99 0.66-1.98 1-3-1.92-0.186-1.92-0.186-3.88-0.375-3.88-0.375-3.88-0.375-6.12-2.62 0.66-0.33 1.32-0.66 2-1 0.66 0.33 1.32 0.66 2 1v-2z" fill="#733B31"/>
<path transform="translate(1308,313)" d="m0 0c3.83 2.52 5.5 4.44 6.63 8.9 0.715 4.1 0.61 8.2 0.554 12.3-0.00645 1.01-0.0129 2.01-0.0195 3.05-0.145 15.2-0.674 30.5-1.17 45.7h-1v-7h-2c0.0116-1.19 0.0232-2.39 0.0352-3.62 0.0741-11.4-0.0655-22.8-0.354-34.2-0.0377-1.53-0.0721-3.06-0.103-4.6-0.0453-2.18-0.103-4.35-0.164-6.53-0.0314-1.26-0.0628-2.53-0.0952-3.83-0.301-3.04-0.864-4.62-2.32-7.23v-3z" fill="#713930"/>
<path transform="translate(1309,318)" d="m0 0c2.81 2.81 2.31 4.68 2.41 8.61 0.0196 0.674 0.0393 1.35 0.0595 2.04 0.0613 2.22 0.108 4.44 0.151 6.66 0.0345 1.54 0.0692 3.07 0.104 4.61 0.0684 3.15 0.128 6.3 0.183 9.45 0.0651 3.66 0.16 7.32 0.267 11 0.0878 3.22 0.139 6.44 0.196 9.66 0.0573 1.75 0.0573 1.75 0.116 3.53 0.0709 7.25-0.771 13.7-5.49 19.5-2.67 1.27-2.67 1.27-5 2 0.349-0.543 0.699-1.09 1.06-1.64 0.455-0.715 0.91-1.43 1.38-2.17 0.452-0.708 0.905-1.42 1.37-2.14 2.25-3.86 2.34-7.06 2.4-11.4 0.0099-0.644 0.0198-1.29 0.03-1.95 0.0316-2.13 0.0563-4.25 0.0811-6.38 0.0206-1.48 0.0416-2.95 0.063-4.43 0.0552-3.88 0.105-7.76 0.153-11.6 0.0503-3.96 0.106-7.92 0.161-11.9 0.108-7.77 0.209-15.5 0.307-23.3z" fill="#EFEFEF"/>
<path transform="translate(351,399)" d="m0 0h44c0.495 1.49 0.495 1.49 1 3-4.94 0.338-9.89 0.659-14.8 0.964-1.68 0.106-3.36 0.217-5.03 0.332-9.06 0.62-17.3 1.14-26.1-1.3 0.33-0.99 0.66-1.98 1-3z" fill="#723A30"/>
<path transform="translate(1210,399)" d="m0 0h38c0.495 1.49 0.495 1.49 1 3-12.7 2.94-27.1 0.694-40 0 0.33-0.99 0.66-1.98 1-3z" fill="#723A30"/>
<path transform="translate(1336,292)" d="m0 0c0.66 0.66 1.32 1.32 2 2 0.66-0.33 1.32-0.66 2-1 0.98 5.69 1.12 11.2 1.06 16.9-0.00451 0.875-0.00902 1.75-0.0137 2.65-0.0117 2.14-0.0296 4.27-0.0488 6.41h-1v-12c-1.32-0.33-2.64-0.66-4-1-0.33-0.33-0.66-0.66-1-1-0.99 0.33-1.98 0.66-3 1-0.196-1.6-0.381-3.21-0.562-4.81-0.157-1.34-0.157-1.34-0.316-2.71-0.121-2.48-0.121-2.48 0.879-5.48 1.94-0.812 1.94-0.812 4-1z" fill="#8A4B42"/>
<path transform="translate(385,302)" d="m0 0v1c-0.583 0.0198-1.17 0.0396-1.77 0.0601-10.9 0.386-21.5 0.974-32.3 2.47-5.22 0.625-10.4 0.893-15.7 1.15-5.12 0.249-10.2 0.667-15.3 1.33 4.52-4.52 12.2-4.57 18.3-5.12 0.914-0.0849 1.83-0.17 2.77-0.257 14.6-1.18 29.3-0.785 43.9-0.618z" fill="#8A493E"/>
<path transform="translate(1293,306)" d="m0 0c-3 1-3 1-6 0-1.33-0.139-2.67-0.234-4.01-0.297-0.801-0.04-1.6-0.0799-2.43-0.121-0.859-0.0386-1.72-0.0772-2.6-0.117-0.884-0.043-1.77-0.086-2.68-0.13-2.82-0.136-5.64-0.267-8.47-0.397-1.91-0.0914-3.83-0.183-5.74-0.275-4.69-0.225-9.38-0.445-14.1-0.662v-2c4.25-0.194 8.5-0.373 12.8-0.537 1.44-0.058 2.88-0.12 4.33-0.187 10.4-0.478 19.5-0.592 28.9 4.72z" fill="#8A493E"/>
<path transform="translate(1204,359)" d="m0 0h36v3h-36v-3z" fill="#FAFCFC"/>
<path transform="translate(309,314)" d="m0 0c0.66 0.33 1.32 0.66 2 1-0.323 0.52-0.647 1.04-0.98 1.58-1.33 3.17-1.3 5.77-1.34 9.21-0.01 0.674-0.0201 1.35-0.0304 2.04-0.0308 2.22-0.0479 4.44-0.0648 6.66-0.0187 1.54-0.0383 3.08-0.0587 4.62-0.0513 4.05-0.0909 8.1-0.128 12.2-0.0401 4.14-0.0911 8.27-0.141 12.4-0.0967 8.11-0.181 16.2-0.258 24.3h-1c-0.2-9.06-0.384-18.1-0.547-27.2-0.076-4.21-0.158-8.41-0.252-12.6-0.0912-4.06-0.167-8.12-0.233-12.2-0.0278-1.55-0.0609-3.1-0.0995-4.65-0.0532-2.17-0.0872-4.34-0.117-6.51-0.0244-1.23-0.0489-2.47-0.074-3.74 0.347-3.37 1.03-4.71 3.32-7.14z" fill="#733B31"/>
<path transform="translate(265,380)" d="m0 0h1c0.0251 0.569 0.0501 1.14 0.0759 1.72 0.117 2.61 0.239 5.23 0.362 7.84 0.0393 0.895 0.0786 1.79 0.119 2.71 0.405 8.99 0.405 8.99 2.44 17.7 0.66-0.99 1.32-1.98 2-3 1.11 3.33 0.845 5.62 0 9h-4c-0.33-1.32-0.66-2.64-1-4-1.49 0.495-1.49 0.495-3 1v-8h1c-0.0116-1.13-0.0232-2.27-0.0352-3.44-0.00939-1.52-0.0185-3.04-0.0273-4.56-0.00838-0.744-0.0168-1.49-0.0254-2.25-0.0218-5.01 0.372-9.79 1.09-14.7z" fill="#914E45"/>
<path transform="translate(508,362)" d="m0 0h9v2h2v6h-12c0-6 0-6 1-8z" fill="#FBFFFF"/>
<path transform="translate(1308,313)" d="m0 0c2.47 1.47 2.47 1.47 5 4 0.446 3.03 0.587 5.47 0.488 8.48-0.00707 0.816-0.0141 1.63-0.0214 2.47-0.0279 2.6-0.0907 5.2-0.154 7.79-0.0251 1.76-0.0479 3.53-0.0684 5.29-0.0551 4.32-0.141 8.64-0.244 13h-2c-0.0198-1.01-0.0396-2.02-0.0601-3.06-0.0762-3.75-0.165-7.5-0.257-11.2-0.0382-1.62-0.0731-3.24-0.104-4.87-0.0458-2.33-0.104-4.67-0.164-7-0.0116-0.723-0.0231-1.45-0.035-2.19-0.11-3.75-0.513-6.38-2.38-9.64v-3z" fill="#7D4137"/>
<path transform="translate(309,370)" d="m0 0c2.79 2.79 2.23 4.66 2.31 8.56 0.355 6.64 1.83 11.1 5.69 16.4-3.34-0.816-5.46-1.34-7.68-4.04-1.78-4-1.68-7.39-1.57-11.7 0.00516-0.78 0.0103-1.56 0.0156-2.36 0.0798-5.73 0.0798-5.73 1.23-6.89z" fill="#EFEFEF"/>
<path transform="translate(378,359)" d="m0 0h20v3h-6v2h-3v-2h-15c1.32-0.33 2.64-0.66 4-1v-2z" fill="#FAFCFC"/>
<path transform="translate(404,399)" d="m0 0h22c0.33 0.99 0.66 1.98 1 3h-24c0.33-0.99 0.66-1.98 1-3z" fill="#723A30"/>
<path transform="translate(1262,307)" d="m0 0h22c0.33 0.99 0.66 1.98 1 3h-24c0.33-0.99 0.66-1.98 1-3z" fill="#EFEFEF"/>
<path transform="translate(1266 294)" d="m0 0c1.3-0.0213 1.3-0.0213 2.62-0.043 2.38 0.23 2.38 0.23 5.38 2.23h-4v2l4 1c-5.23 0.756-9.77 1.21-15 0-0.33-1.32-0.66-2.64-1-4 2.93-0.976 4.95-1.16 8-1.19z" fill="#67342D"/>
<path transform="translate(1101,399)" d="m0 0h20c0.33 0.99 0.66 1.98 1 3h-22c0.33-0.99 0.66-1.98 1-3z" fill="#723A30"/>
<path transform="translate(1299,308)" d="m0 0c3.02 1.09 5.24 2.26 8 4 0.711 2.13 0.711 2.13 1 4h-2c-0.415-0.46-0.83-0.92-1.26-1.39-2.36-2.18-4.51-2.56-7.62-3.29-1.03-0.251-2.06-0.503-3.12-0.762-2.76-0.505-5.22-0.659-8.01-0.551v-3c3.94-1.97 8.89-0.0334 13 1z" fill="#EFEFEF"/>
<path transform="translate(525,364)" d="m0 0h10v6h-10v-6z" fill="#FBFFFF"/>
<path transform="translate(1255,323)" d="m0 0h7c-0.99 0.33-1.98 0.66-3 1v6h-6v-3h-7v-2h9v-2z" fill="#FCFDFF"/>
<path transform="translate(1054,399)" d="m0 0h17c0.33 0.99 0.66 1.98 1 3h-19c0.33-0.99 0.66-1.98 1-3z" fill="#733B31"/>
<path transform="translate(546,364)" d="m0 0h8v6h-8v-6z" fill="#FBFFFF"/>
<path transform="translate(312,314)" d="m0 0c0.66 0.33 1.32 0.66 2 1-0.33 0.66-0.66 1.32-1 2h-2v14h-3c-0.0542-1.92-0.0929-3.83-0.125-5.75-0.0232-1.07-0.0464-2.13-0.0703-3.23 0.192-2.97 0.56-4.57 2.2-7.02 0.66-0.33 1.32-0.66 2-1z" fill="#F0F0F0"/>
<path transform="translate(1164,325)" d="m0 0h9v5h-9v-5z" fill="#FCFDFF"/>
<path transform="translate(1181,399)" d="m0 0h13c0.33 0.99 0.66 1.98 1 3h-15c0.33-0.99 0.66-1.98 1-3z" fill="#723A30"/>
<path transform="translate(530,399)" d="m0 0h13c0.33 0.99 0.66 1.98 1 3h-15c0.33-0.99 0.66-1.98 1-3z" fill="#723A30"/>
<path transform="translate(309,314)" d="m0 0c0.66 0.33 1.32 0.66 2 1-0.327 0.521-0.655 1.04-0.992 1.58-1.32 3.17-1.2 5.75-1.13 9.17 0.018 1.17 0.0361 2.34 0.0547 3.55 0.0232 0.892 0.0464 1.78 0.0703 2.7h-3c-0.0812-2.25-0.139-4.5-0.188-6.75-0.0348-1.25-0.0696-2.51-0.105-3.8 0.305-3.59 0.837-4.9 3.29-7.45z" fill="#793F34"/>
<path transform="translate(551,399)" d="m0 0h12c0.33 0.99 0.66 1.98 1 3h-14c0.33-0.99 0.66-1.98 1-3z" fill="#723A30"/>
<path transform="translate(1100,364)" d="m0 0h6v6h-6v-6z" fill="#FBFFFF"/>
<path transform="translate(1074,399)" d="m0 0h11c0.33 0.99 0.66 1.98 1 3h-13c0.33-0.99 0.66-1.98 1-3z" fill="#733B31"/>
<path transform="translate(1314,367)" d="m0 0v16h-1v-7h-2v-8c2-1 2-1 3-1z" fill="#733B31"/>
<path transform="translate(1286,317)" d="m0 0c1.44-0.0542 2.87-0.0929 4.31-0.125 0.801-0.0232 1.6-0.0464 2.43-0.0703 2.26 0.195 2.26 0.195 5.26 2.2v2c-0.615-0.0722-1.23-0.144-1.86-0.219-0.808-0.0928-1.62-0.186-2.45-0.281-1.2-0.139-1.2-0.139-2.43-0.281-2.38-0.267-2.38-0.267-5.26-0.219v-3z" fill="#FAFCFC"/>
<path transform="translate(329,307)" d="m0 0v2c-1.24 0.535-2.5 1.05-3.75 1.56-0.696 0.29-1.39 0.58-2.11 0.879-2.44 0.637-3.78 0.361-6.14-0.441 3.64-3.99 6.74-4.12 12-4z" fill="#F1F2F2"/>
<path transform="translate(358,384)" d="m0 0h10v3h-10v-3z" fill="#FAFCFC"/>
<path transform="translate(316,366)" d="m0 0h3v10h-3v-10z" fill="#FCFDFF"/>
<path transform="translate(1075,359)" d="m0 0h9v3h-9v-3z" fill="#FAFCFC"/>
<path transform="translate(1318,298)" d="m0 0c1.32 0.33 2.64 0.66 4 1v3c0.516 0.99 1.03 1.98 1.56 3 1.44 3 1.44 3 0.438 6-0.818-1.41-1.63-2.83-2.44-4.25-0.452-0.789-0.905-1.58-1.37-2.39-1.08-2.15-1.72-4.01-2.19-6.36z" fill="#733B31"/>
</svg>
