<?xml version="1.0" standalone="no"?>
<!DOCTYPE svg PUBLIC "-//W3C//DTD SVG 20010904//EN"
 "http://www.w3.org/TR/2001/REC-SVG-20010904/DTD/svg10.dtd">
<svg version="1.0" xmlns="http://www.w3.org/2000/svg"
 width="1280.000000pt" height="600.000000pt" viewBox="0 0 1280.000000 600.000000"
 preserveAspectRatio="xMidYMid meet">

<g transform="translate(0.000000,600.000000) scale(0.100000,-0.100000)"
fill="#000000" stroke="none">
<path d="M5985 4424 c-16 -2 -72 -9 -124 -15 -267 -31 -575 -144 -810 -296
-406 -264 -672 -649 -763 -1105 -32 -161 -32 -415 0 -576 28 -137 69 -267 122
-379 437 -933 1656 -1317 2630 -828 501 252 837 683 942 1207 18 92 22 146 22
288 0 244 -34 414 -123 621 -242 561 -786 963 -1439 1065 -95 14 -397 27 -457
18z m525 -227 c138 -30 320 -99 444 -169 322 -181 569 -473 674 -798 50 -155
57 -201 57 -400 0 -207 -9 -272 -62 -424 -72 -207 -175 -370 -337 -531 -219
-218 -482 -358 -801 -427 -87 -19 -131 -22 -330 -22 -200 0 -243 3 -331 22
-424 92 -779 329 -996 667 -214 332 -267 750 -143 1122 67 199 174 372 330
529 162 164 328 273 546 358 220 86 349 107 629 101 170 -3 225 -8 320 -28z"/>
<path d="M5508 3692 c-55 -62 -213 -259 -338 -422 -19 -25 -45 -56 -57 -70
-27 -30 -29 -60 -5 -81 9 -9 55 -64 102 -124 272 -348 330 -415 363 -415 44 0
51 22 57 179 l5 146 80 -1 c187 -2 633 -44 680 -64 11 -5 38 -11 60 -15 81
-12 105 -17 111 -26 3 -5 20 -9 39 -9 18 0 35 -5 37 -10 2 -6 13 -12 25 -14
12 -3 31 -10 42 -16 12 -6 21 -8 21 -5 0 3 20 -6 45 -20 25 -14 52 -25 60 -25
8 0 15 -4 15 -8 0 -5 16 -14 35 -22 19 -8 35 -17 35 -22 0 -4 7 -8 15 -8 8 0
15 -4 15 -10 0 -5 7 -10 15 -10 8 0 15 -4 15 -10 0 -5 6 -10 13 -10 7 0 19 -9
27 -20 8 -11 20 -20 27 -20 7 0 13 -3 13 -7 0 -5 19 -28 43 -54 23 -25 57 -64
76 -87 18 -23 38 -39 44 -35 14 9 2 129 -20 183 -25 65 -81 169 -116 215 -52
68 -181 188 -239 223 -16 9 -28 20 -28 24 0 4 -5 8 -11 8 -6 0 -30 13 -54 30
-55 38 -213 120 -231 120 -8 0 -14 5 -14 10 0 6 -9 10 -20 10 -11 0 -29 5 -40
10 -11 6 -29 15 -40 20 -11 6 -29 10 -39 10 -11 0 -23 5 -26 10 -3 6 -15 10
-26 10 -10 0 -27 4 -37 9 -29 14 -87 31 -110 31 -11 0 -24 5 -27 10 -3 6 -19
10 -34 10 -16 0 -45 7 -65 15 -20 9 -42 15 -49 14 -7 -1 -23 1 -37 4 -14 4
-43 9 -65 12 -22 3 -53 9 -70 14 -16 5 -64 12 -105 15 -41 4 -78 10 -82 14 -5
5 -9 72 -11 149 -2 123 -4 144 -21 162 -29 32 -50 26 -98 -27z"/>
</g>
</svg>
